<svg width="20" height="20" viewBox="0 0 20 20" fill="none" xmlns="http://www.w3.org/2000/svg">
<path opacity="0.7" d="M7.08333 5.83333C10.9954 5.83333 14.1667 4.5275 14.1667 2.91667C14.1667 1.30584 10.9954 0 7.08333 0C3.17132 0 0 1.30584 0 2.91667C0 4.5275 3.17132 5.83333 7.08333 5.83333Z" fill="#280748"/>
<path opacity="0.7" d="M6.17584 9.97441C6.72917 8.80025 7.56084 7.78608 8.58751 7.01358C8.08917 7.05608 7.58751 7.08441 7.08334 7.08441C4.32417 7.08441 1.54917 6.44525 0 5.21191V7.08441C0 8.56858 2.69334 9.79025 6.17584 9.97441Z" fill="#280748"/>
<path opacity="0.7" d="M5.41666 13.3338C5.41666 12.5904 5.52666 11.8738 5.71916 11.1913C3.44083 11.0163 1.2925 10.4071 0 9.37793V11.2504C0 12.6304 2.32916 13.7829 5.45499 14.0862C5.43166 13.8388 5.41666 13.5879 5.41666 13.3338Z" fill="#280748"/>
<path d="M13.3346 6.66699C12.0161 6.66699 10.7272 7.05799 9.63084 7.79053C8.53451 8.52307 7.68003 9.56426 7.17544 10.7824C6.67086 12.0006 6.53884 13.3411 6.79607 14.6343C7.0533 15.9275 7.68824 17.1154 8.62059 18.0477C9.55294 18.9801 10.7408 19.615 12.034 19.8722C13.3272 20.1295 14.6677 19.9974 15.8859 19.4929C17.104 18.9883 18.1452 18.1338 18.8778 17.0375C19.6103 15.9411 20.0013 14.6522 20.0013 13.3337C19.9993 11.5662 19.2962 9.87167 18.0464 8.62187C16.7966 7.37207 15.1021 6.66904 13.3346 6.66699ZM16.3721 13.5295C16.3464 13.5921 16.3085 13.649 16.2607 13.6969L14.0858 15.8717C13.9896 15.9677 13.8593 16.0216 13.7234 16.0215C13.5875 16.0214 13.4572 15.9674 13.3611 15.8713C13.265 15.7752 13.211 15.6449 13.2109 15.509C13.2108 15.3731 13.2647 15.2428 13.3607 15.1466L14.6608 13.8465H10.7705C10.6345 13.8465 10.5041 13.7924 10.4079 13.6963C10.3117 13.6001 10.2577 13.4697 10.2577 13.3337C10.2577 13.1976 10.3117 13.0672 10.4079 12.971C10.5041 12.8749 10.6345 12.8208 10.7705 12.8208H14.6608L13.3607 11.5208C13.2647 11.4246 13.2108 11.2942 13.2109 11.1583C13.211 11.0224 13.265 10.8921 13.3611 10.796C13.4572 10.6999 13.5875 10.6459 13.7234 10.6458C13.8593 10.6457 13.9896 10.6996 14.0858 10.7956L16.2607 12.9705C16.3323 13.0423 16.3811 13.1336 16.4009 13.2331C16.4208 13.3326 16.4107 13.4357 16.3721 13.5295V13.5295Z" fill="#280748"/>
</svg>
