<svg width="23" height="27" viewBox="0 0 23 27" fill="none" xmlns="http://www.w3.org/2000/svg">
    <path d="M14.6758 11.5742C14.9466 11.8451 15.082 12.1836 15.082 12.5898C15.082 12.9961 14.9466 13.3516 14.6758 13.6562C14.4388 13.9271 14.1341 14.0625 13.7617 14.0625C13.5247 14.0625 13.3047 13.9948 13.1016 13.8594C12.8984 13.724 12.7292 13.5547 12.5938 13.3516C12.4922 13.1146 12.4414 12.8607 12.4414 12.5898C12.4414 12.3867 12.4753 12.2005 12.543 12.0312C12.6107 11.862 12.6953 11.7096 12.7969 11.5742C12.9323 11.4388 13.0846 11.3372 13.2539 11.2695C13.4232 11.2018 13.5924 11.168 13.7617 11.168C14.1341 11.168 14.4388 11.3034 14.6758 11.5742ZM8.07422 11.5742C8.34505 11.3034 8.66667 11.168 9.03906 11.168C9.41146 11.168 9.71615 11.3034 9.95312 11.5742C10.224 11.8451 10.3594 12.1836 10.3594 12.5898C10.3594 12.9961 10.224 13.3516 9.95312 13.6562C9.71615 13.9271 9.41146 14.0625 9.03906 14.0625C8.66667 14.0625 8.34505 13.9271 8.07422 13.6562C7.83724 13.3516 7.71875 12.9961 7.71875 12.5898C7.71875 12.1836 7.83724 11.8451 8.07422 11.5742ZM22.75 2.94141V26.25C20.7865 24.5234 18.7721 22.6953 16.707 20.7656L17.418 23.2031H2.64062C1.92969 23.2031 1.30339 22.9492 0.761719 22.4414C0.253906 21.8997 0 21.2565 0 20.5117V2.94141C0 2.19661 0.253906 1.57031 0.761719 1.0625C1.30339 0.520833 1.92969 0.25 2.64062 0.25H20.1094C20.8203 0.25 21.4297 0.520833 21.9375 1.0625C22.4792 1.57031 22.75 2.19661 22.75 2.94141ZM19.043 15.2305C19.043 14.0117 18.8906 12.776 18.5859 11.5234C18.2812 10.237 17.9596 9.27214 17.6211 8.62891L17.1641 7.66406C16.8255 7.39323 16.4531 7.17318 16.0469 7.00391C15.6745 6.80078 15.3359 6.66536 15.0312 6.59766C14.7604 6.49609 14.5065 6.42839 14.2695 6.39453C14.0326 6.32682 13.8464 6.29297 13.7109 6.29297H13.5078L13.3555 6.49609C13.9987 6.69922 14.5911 6.95312 15.1328 7.25781C15.6745 7.52865 16.0469 7.7487 16.25 7.91797L16.5547 8.17188C15.0651 7.32552 13.4401 6.88542 11.6797 6.85156C9.91927 6.81771 8.3112 7.1224 6.85547 7.76562L6.09375 8.17188C6.80469 7.49479 7.9388 6.91927 9.49609 6.44531L9.39453 6.29297C8.20964 6.29297 6.99089 6.75 5.73828 7.66406C5.60286 7.9349 5.43359 8.29036 5.23047 8.73047C5.02734 9.17057 4.73958 10.0677 4.36719 11.4219C4.02865 12.7422 3.85938 14.0117 3.85938 15.2305C3.92708 15.3997 4.04557 15.5859 4.21484 15.7891C4.41797 15.9922 4.85807 16.2799 5.53516 16.6523C6.21224 17.0247 6.97396 17.2109 7.82031 17.2109C8.15885 16.8385 8.44661 16.4831 8.68359 16.1445C8.20964 16.0091 7.76953 15.8229 7.36328 15.5859C6.99089 15.3151 6.73698 15.0781 6.60156 14.875L6.39844 14.6211C6.46615 14.6549 6.53385 14.7057 6.60156 14.7734C6.70312 14.8073 6.78776 14.8411 6.85547 14.875C6.92318 14.9089 6.95703 14.9258 6.95703 14.9258C8.10807 15.569 9.3776 15.9583 10.7656 16.0938C12.1875 16.1953 13.6263 15.9583 15.082 15.3828C15.5898 15.2135 16.0807 14.9596 16.5547 14.6211C16.1146 15.332 15.3359 15.8568 14.2188 16.1953L15.082 17.2109C15.6237 17.2109 16.1146 17.1432 16.5547 17.0078C17.0286 16.8385 17.401 16.6693 17.6719 16.5C17.9766 16.2969 18.2305 16.1107 18.4336 15.9414C18.6706 15.7383 18.8229 15.569 18.8906 15.4336L19.043 15.2305Z" fill="currentcolor"/>
</svg>
