<svg width="92" height="92" viewBox="0 0 92 92" fill="none" xmlns="http://www.w3.org/2000/svg">
<g filter="url(#filter0_d_16708_2671)">
<rect x="20" y="20" width="52" height="52" rx="26" fill="#351C4F"/>
<rect x="20.75" y="20.75" width="50.5" height="50.5" rx="25.25" stroke="url(#paint0_linear_16708_2671)" stroke-width="1.5"/>
</g>
<path opacity="0.7" d="M42.1124 40.4448C47.3284 40.4448 51.5569 38.7037 51.5569 36.5559C51.5569 34.4081 47.3284 32.667 42.1124 32.667C36.8964 32.667 32.668 34.4081 32.668 36.5559C32.668 38.7037 36.8964 40.4448 42.1124 40.4448Z" fill="#4CCBC9"/>
<path opacity="0.7" d="M40.9024 45.9662C41.6402 44.4007 42.7491 43.0484 44.118 42.0184C43.4535 42.0751 42.7846 42.1129 42.1124 42.1129C38.4335 42.1129 34.7335 41.2607 32.668 39.6162V42.1129C32.668 44.0918 36.2591 45.7207 40.9024 45.9662Z" fill="#4CCBC9"/>
<path opacity="0.7" d="M39.8902 50.4453C39.8902 49.4542 40.0369 48.4987 40.2935 47.5887C37.2557 47.3553 34.3913 46.5431 32.668 45.1709V47.6676C32.668 49.5076 35.7735 51.0442 39.9413 51.4487C39.9102 51.1187 39.8902 50.7842 39.8902 50.4453Z" fill="#4CCBC9"/>
<path d="M50.4475 41.5557C48.6894 41.5557 46.9709 42.077 45.5091 43.0537C44.0473 44.0304 42.908 45.4187 42.2352 47.0429C41.5624 48.6672 41.3864 50.4544 41.7294 52.1787C42.0724 53.903 42.919 55.4868 44.1621 56.7299C45.4052 57.9731 46.9891 58.8197 48.7133 59.1626C50.4376 59.5056 52.2249 59.3296 53.8491 58.6568C55.4733 57.984 56.8616 56.8447 57.8383 55.383C58.815 53.9212 59.3364 52.2026 59.3364 50.4446C59.3336 48.0879 58.3963 45.8286 56.7299 44.1622C55.0635 42.4958 52.8041 41.5584 50.4475 41.5557ZM54.4975 50.7056C54.4632 50.7891 54.4127 50.865 54.3489 50.9288L51.4491 53.8286C51.3208 53.9566 51.147 54.0285 50.9658 54.0284C50.7846 54.0283 50.6108 53.9562 50.4827 53.8281C50.3546 53.7 50.2826 53.5262 50.2825 53.345C50.2824 53.1638 50.3542 52.99 50.4822 52.8618L52.2156 51.1283H47.0287C46.8473 51.1283 46.6734 51.0563 46.5452 50.928C46.417 50.7998 46.3449 50.6259 46.3449 50.4446C46.3449 50.2632 46.417 50.0893 46.5452 49.9611C46.6734 49.8328 46.8473 49.7608 47.0287 49.7608H52.2156L50.4822 48.0274C50.3542 47.8991 50.2824 47.7253 50.2825 47.5441C50.2826 47.3629 50.3546 47.1891 50.4827 47.061C50.6108 46.9329 50.7846 46.8608 50.9658 46.8607C51.147 46.8606 51.3208 46.9325 51.4491 47.0605L54.3489 49.9603C54.4444 50.056 54.5094 50.1779 54.5359 50.3105C54.5623 50.4431 54.5489 50.5806 54.4975 50.7056V50.7056Z" fill="#4CCBC9"/>
<defs>
<filter id="filter0_d_16708_2671" x="0" y="0" width="92" height="92" filterUnits="userSpaceOnUse" color-interpolation-filters="sRGB">
<feFlood flood-opacity="0" result="BackgroundImageFix"/>
<feColorMatrix in="SourceAlpha" type="matrix" values="0 0 0 0 0 0 0 0 0 0 0 0 0 0 0 0 0 0 127 0" result="hardAlpha"/>
<feOffset/>
<feGaussianBlur stdDeviation="10"/>
<feComposite in2="hardAlpha" operator="out"/>
<feColorMatrix type="matrix" values="0 0 0 0 0.631373 0 0 0 0 0.419608 0 0 0 0 0.847059 0 0 0 0.5 0"/>
<feBlend mode="normal" in2="BackgroundImageFix" result="effect1_dropShadow_16708_2671"/>
<feBlend mode="normal" in="SourceGraphic" in2="effect1_dropShadow_16708_2671" result="shape"/>
</filter>
<linearGradient id="paint0_linear_16708_2671" x1="15.6269" y1="20" x2="112.667" y2="58.0294" gradientUnits="userSpaceOnUse">
<stop stop-color="#4CCBC9"/>
<stop offset="1" stop-color="#E4007B"/>
</linearGradient>
</defs>
</svg>
