<svg width="12" height="12" viewBox="0 0 12 12" fill="none" xmlns="http://www.w3.org/2000/svg">
<g clip-path="url(#clip0_16654_3188)">
<g filter="url(#filter0_d_16654_3188)">
<path fill-rule="evenodd" clip-rule="evenodd" d="M2.98368 3.5H0.875C0.395 3.5 0 3.895 0 4.375V5.625C0 6.105 0.395 6.5 0.875 6.5H1H5.625V5.75V4.01519C5.74107 4.01917 5.85945 4.02131 5.98017 4.02152C5.98671 4.02187 5.99328 4.02204 5.99987 4.02204C6.1275 4.02204 6.25254 4.01989 6.375 4.01569V5.75V6.5H11H11.125C11.605 6.5 12 6.105 12 5.625V4.375C12 3.895 11.605 3.5 11.125 3.5H9.0174C10.3689 2.94394 10.9999 2.04777 10.9999 1.33704C10.9999 0.710039 10.5194 -0.0219609 9.16437 -0.0224609C7.47386 -0.0224609 6.49198 1.17652 5.99994 2.31827C5.50792 1.17652 4.52615 -0.0224609 2.836 -0.0224609C1.481 -0.0224609 1 0.709539 1 1.33654C1 2.04748 1.63133 2.94398 2.98368 3.5ZM9.16437 0.728039C7.37337 0.728039 6.69337 2.43054 6.46787 3.26104C7.88087 3.19504 8.77187 2.83754 9.28487 2.53304C9.99637 2.11054 10.2499 1.63804 10.2499 1.33654C10.2499 0.887539 9.68937 0.728039 9.16437 0.728039ZM5.625 7.25H1V11.125C1 11.605 1.395 12 1.875 12H5.625V7.25ZM11 11.125V7.25H6.375V12H10.125C10.605 12 11 11.605 11 11.125ZM1.75 1.33654C1.75 0.887539 2.311 0.727539 2.836 0.727539C4.6265 0.727539 5.3065 2.43004 5.5315 3.26104C2.8665 3.13854 1.75 1.97504 1.75 1.33654Z" fill="white"/>
</g>
</g>
<defs>
<filter id="filter0_d_16654_3188" x="-1" y="-1.02246" width="14" height="14.0225" filterUnits="userSpaceOnUse" color-interpolation-filters="sRGB">
<feFlood flood-opacity="0" result="BackgroundImageFix"/>
<feColorMatrix in="SourceAlpha" type="matrix" values="0 0 0 0 0 0 0 0 0 0 0 0 0 0 0 0 0 0 127 0" result="hardAlpha"/>
<feOffset/>
<feGaussianBlur stdDeviation="0.5"/>
<feComposite in2="hardAlpha" operator="out"/>
<feColorMatrix type="matrix" values="0 0 0 0 0 0 0 0 0 0 0 0 0 0 0 0 0 0 0.4 0"/>
<feBlend mode="normal" in2="BackgroundImageFix" result="effect1_dropShadow_16654_3188"/>
<feBlend mode="normal" in="SourceGraphic" in2="effect1_dropShadow_16654_3188" result="shape"/>
</filter>
<clipPath id="clip0_16654_3188">
<rect width="12" height="12" fill="white"/>
</clipPath>
</defs>
</svg>
