<svg width="28" height="28" viewBox="0 0 28 28" fill="none" xmlns="http://www.w3.org/2000/svg">
<circle cx="14" cy="14" r="14" fill="#F0489F"/>
<mask id="mask0_6381_15016" style="mask-type:alpha" maskUnits="userSpaceOnUse" x="0" y="0" width="28" height="28">
<circle cx="14" cy="14" r="14" fill="#F0489F"/>
</mask>
<g mask="url(#mask0_6381_15016)">
</g>
<path d="M6.29736 22.2759L19.9813 18.6093L19.4637 16.6774C19.4067 16.4649 19.5413 16.2425 19.7626 16.1832C19.984 16.1239 20.2117 16.2493 20.2686 16.4618L20.7862 18.3936L24.8109 17.3152C25.0323 17.2559 25.1668 17.0335 25.1099 16.821L24.057 12.8916C24.0001 12.6791 23.7724 12.5538 23.551 12.6131C22.8869 12.791 22.2038 12.415 22.033 11.7775C21.8622 11.14 22.2658 10.4728 22.9298 10.2949C23.1512 10.2355 23.2857 10.0131 23.2288 9.80064L22.2111 6.00262C22.1542 5.79012 21.9265 5.66478 21.7051 5.72409L17.6804 6.80251L18.1981 8.73436C18.255 8.94686 18.1205 9.16926 17.8991 9.22857C17.6778 9.28788 17.4501 9.16254 17.3931 8.95004L16.8755 7.01819L3.19153 10.6848C2.97017 10.7441 2.83565 10.9665 2.89259 11.179L3.91027 14.977C3.96721 15.1895 4.19491 15.3149 4.41626 15.2556C5.08034 15.0776 5.76343 15.4536 5.93425 16.0911C6.10507 16.7287 5.7015 17.3958 5.03743 17.5738C4.81607 17.6331 4.68155 17.8555 4.73849 18.068L5.79136 21.9974C5.8483 22.2099 6.076 22.3352 6.29736 22.2759ZM17.8072 10.4955C17.7503 10.283 17.8848 10.0606 18.1062 10.0013C18.3275 9.942 18.5552 10.0673 18.6122 10.2798L19.0263 11.8253C19.0832 12.0378 18.9487 12.2602 18.7273 12.3195C18.506 12.3788 18.2783 12.2535 18.2213 12.041L17.8072 10.4955ZM18.6354 13.5865C18.5785 13.374 18.713 13.1516 18.9344 13.0923C19.1557 13.033 19.3834 13.1583 19.4404 13.3708L19.8545 14.9163C19.9114 15.1288 19.7769 15.3512 19.5556 15.4105C19.3342 15.4698 19.1065 15.3445 19.0496 15.132L18.6354 13.5865ZM8.61016 14.7281C8.62118 14.5761 8.71903 14.4422 8.86173 14.3791L10.2617 13.7762L10.5555 12.2647C10.5867 12.1073 10.7048 11.9845 10.8617 11.9425C11.0187 11.9004 11.1823 11.9477 11.288 12.0684L12.2982 13.2306L13.8121 13.0527C13.9672 13.0359 14.1189 13.103 14.2045 13.2291C14.289 13.3514 14.2932 13.5118 14.2165 13.6442L13.4315 14.9809L14.0786 16.3977C14.1461 16.5369 14.1211 16.701 14.015 16.8205C13.959 16.8852 13.8848 16.93 13.8043 16.9515C13.7359 16.9699 13.6673 16.9717 13.5946 16.958L12.1134 16.6137L11.0027 17.6525C10.8845 17.7587 10.7175 17.7952 10.5699 17.7437C10.4183 17.6932 10.3146 17.5636 10.3034 17.4092L10.1554 15.8587L8.80729 15.0936C8.67469 15.0173 8.5981 14.8763 8.61016 14.7281Z" fill="white"/>
</svg>
