<svg width="18" height="18" viewBox="0 0 18 18" fill="none" xmlns="http://www.w3.org/2000/svg">
<path d="M5.60938 7.57227H2.23438C2.08519 7.57227 1.94212 7.51301 1.83663 7.40752C1.73114 7.30203 1.67188 7.15896 1.67188 7.00977V3.63477C1.67392 3.52335 1.70821 3.4149 1.77061 3.32256C1.833 3.23021 1.92082 3.15793 2.02344 3.11446C2.12649 3.07274 2.2396 3.0625 2.34848 3.08502C2.45736 3.10755 2.55712 3.16183 2.63516 3.24102L3.92188 4.52774L4.22422 4.2254C5.49201 2.9622 7.20875 2.25293 8.99844 2.25293C10.7881 2.25293 12.5049 2.9622 13.7727 4.2254C13.8779 4.33085 13.9369 4.47372 13.9369 4.62266C13.9369 4.77161 13.8779 4.91448 13.7727 5.01993C13.7209 5.07287 13.6591 5.11493 13.5909 5.14365C13.5227 5.17237 13.4494 5.18716 13.3754 5.18716C13.3014 5.18716 13.2281 5.17237 13.1599 5.14365C13.0917 5.11493 13.0299 5.07287 12.9781 5.01993C11.9212 3.96712 10.4902 3.376 8.99844 3.376C7.50665 3.376 6.07564 3.96712 5.01875 5.01993L4.71641 5.32227L6.01016 6.61602C6.08764 6.69507 6.14008 6.79523 6.16091 6.90395C6.18173 7.01267 6.17002 7.12511 6.12723 7.2272C6.08444 7.32929 6.01248 7.41649 5.92037 7.47787C5.82825 7.53925 5.72007 7.57209 5.60938 7.57227ZM15.7625 10.427H12.3875C12.2768 10.4271 12.1686 10.46 12.0765 10.5214C11.9844 10.5827 11.9124 10.6699 11.8696 10.772C11.8269 10.8741 11.8151 10.9866 11.836 11.0953C11.8568 11.204 11.9092 11.3042 11.9867 11.3832L13.2805 12.677L12.9781 12.9793C11.9212 14.0321 10.4902 14.6232 8.99844 14.6232C7.50665 14.6232 6.07564 14.0321 5.01875 12.9793C4.96702 12.9264 4.90522 12.8843 4.837 12.8556C4.76878 12.8269 4.6955 12.8121 4.62148 12.8121C4.54746 12.8121 4.47419 12.8269 4.40597 12.8556C4.33775 12.8843 4.27595 12.9264 4.22422 12.9793C4.11902 13.0848 4.05995 13.2276 4.05995 13.3766C4.05995 13.5255 4.11902 13.6684 4.22422 13.7738C5.4911 15.0387 7.20819 15.7492 8.99844 15.7492C10.7887 15.7492 12.5058 15.0387 13.7727 13.7738L14.075 13.4715L15.3617 14.7582C15.4135 14.8122 15.4757 14.855 15.5447 14.884C15.6136 14.913 15.6877 14.9276 15.7625 14.927C15.8349 14.9266 15.9065 14.9123 15.9734 14.8848C16.0761 14.8413 16.1639 14.769 16.2263 14.6767C16.2887 14.5843 16.323 14.4759 16.325 14.3645V10.9895C16.325 10.9156 16.3105 10.8424 16.2822 10.7742C16.2539 10.706 16.2125 10.6439 16.1602 10.5917C16.108 10.5395 16.046 10.498 15.9778 10.4698C15.9095 10.4415 15.8364 10.427 15.7625 10.427Z" fill="white"/>
</svg>
