<svg width="12" height="12" viewBox="0 0 12 12" fill="none" xmlns="http://www.w3.org/2000/svg">
<g clip-path="url(#clip0_16654_3179)">
<g filter="url(#filter0_d_16654_3179)">
<path fill-rule="evenodd" clip-rule="evenodd" d="M6.86768 1.18725C6.86768 1.84296 7.39923 2.37451 8.05493 2.37451C8.71064 2.37451 9.24219 1.84296 9.24219 1.18725C9.24219 0.531552 8.71064 0 8.05493 0C7.39923 0 6.86768 0.531552 6.86768 1.18725ZM3.88491 6.09798C3.32251 7.12616 2.57593 8.19425 1.33117 7.46625C0.433021 6.94139 -0.376795 8.33278 0.518586 8.85606C2.21805 9.84925 3.6373 9.13825 4.65461 7.84724C4.68979 7.86622 4.72713 7.88321 4.76804 7.89744C5.599 8.18694 6.35763 8.65429 7.02003 9.23093C7.06706 9.27223 7.11607 9.30543 7.16547 9.33329C7.47616 9.97452 7.787 10.6168 8.09761 11.2585L8.26044 11.595C8.67108 12.4431 9.99745 11.8254 9.58523 10.9733C9.39327 10.5764 9.20122 10.1796 9.00916 9.78288C8.81726 9.38643 8.62535 8.98998 8.43355 8.59343C8.35628 8.43376 8.24661 8.32606 8.12231 8.26223C8.10156 8.2399 8.07962 8.21757 8.05492 8.19603C7.48382 7.69904 6.86945 7.27694 6.20587 6.93764C6.65484 6.06814 7.12219 5.20774 7.61445 4.36235C9.18309 4.84295 10.6741 4.27679 11.736 2.78936C12.2856 2.01966 11.0157 1.29008 10.4723 2.05088C9.63997 3.2168 8.52544 3.35176 7.32613 2.63977C7.24452 2.59135 7.16369 2.56112 7.08524 2.54531C7.05659 2.53187 7.02754 2.51922 6.99829 2.50776C6.94671 2.4471 6.88229 2.39177 6.80206 2.34414C4.87277 1.19878 2.94566 1.64795 1.65328 3.45788C1.10391 4.22758 2.37417 4.95717 2.9172 4.19636C3.58494 3.26126 4.43407 2.99073 5.36265 3.28695C4.8872 4.11218 4.43289 4.95045 3.99755 5.79722C3.94558 5.89859 3.90941 5.99898 3.88491 6.09798Z" fill="white"/>
</g>
</g>
<defs>
<filter id="filter0_d_16654_3179" x="-0.871094" y="-1" width="13.7422" height="14" filterUnits="userSpaceOnUse" color-interpolation-filters="sRGB">
<feFlood flood-opacity="0" result="BackgroundImageFix"/>
<feColorMatrix in="SourceAlpha" type="matrix" values="0 0 0 0 0 0 0 0 0 0 0 0 0 0 0 0 0 0 127 0" result="hardAlpha"/>
<feOffset/>
<feGaussianBlur stdDeviation="0.5"/>
<feComposite in2="hardAlpha" operator="out"/>
<feColorMatrix type="matrix" values="0 0 0 0 0 0 0 0 0 0 0 0 0 0 0 0 0 0 0.4 0"/>
<feBlend mode="normal" in2="BackgroundImageFix" result="effect1_dropShadow_16654_3179"/>
<feBlend mode="normal" in="SourceGraphic" in2="effect1_dropShadow_16654_3179" result="shape"/>
</filter>
<clipPath id="clip0_16654_3179">
<rect width="12" height="12" fill="white" transform="matrix(-1 0 0 1 12 0)"/>
</clipPath>
</defs>
</svg>
