<svg width="20" height="20" viewBox="0 0 20 20" fill="none" xmlns="http://www.w3.org/2000/svg">
<path d="M17.8125 11.2496C17.525 11.2496 17.2917 11.0162 17.2917 10.7287C17.2917 8.71833 15.6562 7.08292 13.6458 7.08292H8.61111V9.33986C8.61111 9.79819 8.05972 10.0301 7.73055 9.71625L3.91111 6.07042C3.80833 5.9725 3.75 5.83639 3.75 5.69403C3.75 5.55167 3.80833 5.41556 3.91111 5.31764L7.73055 1.67181C8.06111 1.35653 8.61111 1.59125 8.61111 2.0482V4.30514H12.9514C15.9187 4.30514 18.3333 6.71972 18.3333 9.68708V10.7287C18.3333 11.0162 18.1 11.2496 17.8125 11.2496Z" fill="#020722"/>
<path opacity="0.5" d="M11.3902 17.9514V15.6944H7.04991C4.08255 15.6944 1.66797 13.2799 1.66797 10.3125V9.27083C1.66797 8.98333 1.9013 8.75 2.1888 8.75C2.4763 8.75 2.70964 8.98333 2.70964 9.27083C2.70964 11.2813 4.34505 12.9167 6.35547 12.9167H11.3902V10.6597C11.3902 10.2035 11.9395 9.96667 12.2707 10.2833L16.0902 13.9292C16.193 14.0271 16.2513 14.1632 16.2513 14.3056C16.2513 14.4479 16.193 14.584 16.0902 14.6819L12.2707 18.3278C11.9395 18.6431 11.3902 18.4083 11.3902 17.9514Z" fill="#020722"/>
</svg>
