<svg width="20" height="20" viewBox="0 0 20 20" fill="none" xmlns="http://www.w3.org/2000/svg">
<path opacity="0.7" d="M9.375 18.5101C9.375 18.6232 9.25875 18.6989 9.155 18.6532L2.88812 15.8914C2.65312 15.7951 2.5 15.5664 2.5 15.3126V9.0626C2.5 8.81322 2.67375 8.5701 2.88812 8.48385L7.2625 6.69447C7.58063 6.56572 7.9475 6.71572 8.07812 7.03634C8.20875 7.35572 8.05562 7.72072 7.73625 7.85134L4.77562 9.0626L9.375 11.2501V18.5101Z" fill="#280748"/>
<path opacity="0.7" d="M17.5 9.06162V15.3116C17.5 15.5654 17.3469 15.7941 17.1119 15.8904L10.845 18.6522C10.7412 18.6979 10.625 18.6222 10.625 18.5091V11.2491L15.2244 9.06162L12.2656 7.85099C11.9462 7.72036 11.7931 7.35536 11.9237 7.03599C12.0544 6.71599 12.4219 6.56536 12.7394 6.69474L17.1119 8.48349C17.3294 8.57224 17.5 8.81412 17.5 9.06162Z" fill="#280748"/>
<path d="M12.942 4.81687L10.442 7.31687C10.3201 7.43875 10.1601 7.5 10.0001 7.5C9.84011 7.5 9.68011 7.43875 9.55824 7.31687L7.05824 4.81687C6.87949 4.63812 6.82574 4.36937 6.92262 4.13563C7.01887 3.9025 7.24762 3.75 7.50012 3.75H8.75011V1.25H11.2501V3.75H12.5001C12.7526 3.75 12.9814 3.9025 13.0776 4.13563C13.1745 4.36937 13.1207 4.63812 12.942 4.81687Z" fill="#280748"/>
</svg>
