<svg width="32" height="32" viewBox="0 0 32 32" fill="none" xmlns="http://www.w3.org/2000/svg">
<circle cx="16" cy="16" r="15.5" fill="#4CCBC9" stroke="#229290"/>
<path d="M16.2593 20.9609H15.4865C14.9423 20.9609 14.5 21.4032 14.5 21.9475V23.0146C14.5 23.5588 14.9423 24.0011 15.4865 24.0011H16.2593C16.8036 24.0011 17.2459 23.5588 17.2459 23.0146V21.9475C17.2459 21.4016 16.8036 20.9609 16.2593 20.9609Z" fill="white"/>
<path d="M10.8107 12.6992L12.2362 12.8768C12.6884 12.9327 13.1176 12.6729 13.2803 12.247C13.4859 11.7094 13.772 11.2852 14.1386 10.9761C14.6582 10.5387 15.3044 10.3184 16.0772 10.3184C16.8779 10.3184 17.5159 10.5288 17.9894 10.9481C18.4629 11.369 18.6981 11.8722 18.6981 12.4624C18.6981 12.8867 18.5649 13.2747 18.2985 13.6266C18.1259 13.8502 17.5948 14.3204 16.7085 15.0389C15.8207 15.7575 15.2304 16.4053 14.9344 16.9808C14.6319 17.5694 14.5267 18.2222 14.5004 18.8766C14.4774 19.4373 14.9246 19.9042 15.4869 19.9042H16.2926C16.8056 19.9042 17.2298 19.5113 17.2758 19.0015C17.3087 18.6349 17.3695 18.357 17.4616 18.1679C17.6162 17.844 18.0157 17.4165 18.657 16.8838C19.8984 15.8561 20.7073 15.0439 21.0871 14.4454C21.4653 13.8485 21.6561 13.2155 21.6561 12.5463C21.6561 11.3378 21.1414 10.2773 20.1105 9.36635C19.0812 8.45545 17.6935 8 15.9506 8C14.2932 8 12.9564 8.44887 11.937 9.34827C11.0689 10.1145 10.5411 11.0221 10.3553 12.0695C10.2977 12.3753 10.5065 12.6614 10.8107 12.6992Z" fill="white"/>
<circle cx="16" cy="16" r="15.5" fill="#A16BD8" stroke="#854BBE"/>
<path d="M24.2983 11.275H20.9626C21.4429 10.6686 21.6747 9.90231 21.6112 9.13138C21.5477 8.36044 21.1936 7.64244 20.6206 7.12276C20.0476 6.60308 19.2986 6.32056 18.5251 6.33239C17.7517 6.34422 17.0116 6.64953 16.4548 7.18649C16.2302 7.41386 16.0464 7.67822 15.9116 7.96798C15.7767 7.67822 15.5929 7.41386 15.3683 7.18649C14.8115 6.64953 14.0714 6.34422 13.298 6.33239C12.5245 6.32056 11.7755 6.60308 11.2025 7.12276C10.6295 7.64244 10.2754 8.36044 10.2119 9.13138C10.1484 9.90231 10.3803 10.6686 10.8605 11.275H7.52485C7.12044 11.275 6.73259 11.4357 6.44662 11.7216C6.16065 12.0076 6 12.3954 6 12.7999V15.8496C6 16.254 6.16065 16.6418 6.44662 16.9278C6.73259 17.2138 7.12044 17.3744 7.52485 17.3744V23.4738C7.52485 23.8783 7.68551 24.2661 7.97147 24.5521C8.25744 24.838 8.64529 24.9987 9.04971 24.9987H22.7734C23.1778 24.9987 23.5657 24.838 23.8516 24.5521C24.1376 24.2661 24.2983 23.8783 24.2983 23.4738V17.3744C24.7027 17.3744 25.0905 17.2138 25.3765 16.9278C25.6625 16.6418 25.8231 16.254 25.8231 15.8496V12.7999C25.8231 12.3954 25.6625 12.0076 25.3765 11.7216C25.0905 11.4357 24.7027 11.275 24.2983 11.275ZM17.5317 8.26342C17.6704 8.11034 17.8388 7.98704 18.0266 7.901C18.2144 7.81496 18.4177 7.76798 18.6242 7.76289C18.8307 7.75781 19.0361 7.79473 19.2279 7.87143C19.4197 7.94812 19.5939 8.06298 19.7399 8.20905C19.886 8.35511 20.0009 8.52933 20.0776 8.72113C20.1543 8.91293 20.1912 9.11831 20.1861 9.32482C20.181 9.53132 20.134 9.73464 20.048 9.92243C19.9619 10.1102 19.8386 10.2786 19.6856 10.4173C19.2186 10.8938 17.8557 11.1511 16.7026 11.2464C16.7979 10.0932 17.0552 8.7304 17.5317 8.26342ZM12.1375 8.26342C12.4246 7.98056 12.8115 7.82199 13.2145 7.82199C13.6175 7.82199 14.0043 7.98056 14.2914 8.26342C14.7679 8.7304 15.0252 10.0932 15.1205 11.2464C13.9674 11.1511 12.6045 10.8938 12.1375 10.4173C11.8547 10.1302 11.6961 9.74336 11.6961 9.34035C11.6961 8.93733 11.8547 8.55049 12.1375 8.26342ZM24.2983 15.8496H16.674V22.7114C16.674 22.9136 16.5937 23.1076 16.4507 23.2505C16.3077 23.3935 16.1138 23.4738 15.9116 23.4738C15.7093 23.4738 15.5154 23.3935 15.3724 23.2505C15.2295 23.1076 15.1491 22.9136 15.1491 22.7114V15.8496H7.52485V12.7999H15.1491V15.8496H16.674V12.7999H24.2983V15.8496Z" fill="white"/>
</svg>
