<svg width="36" height="36" viewBox="0 0 36 36" fill="none" xmlns="http://www.w3.org/2000/svg">
<circle cx="18" cy="18" r="17.5" fill="#A5D990" stroke="#76B55D"/>
<g clip-path="url(#clip0_17315_39959)">
<path d="M12.9367 16.1133C9.1118 16.1133 6 19.2251 6 23.0501C6 26.875 9.1118 29.9868 12.9367 29.9868C16.7617 29.9868 19.8735 26.875 19.8735 23.0501C19.8735 19.2251 16.7617 16.1133 12.9367 16.1133ZM14.3541 25.9825L12.1343 27.846L10.599 25.3878L8.14078 23.8525L10.0043 21.6327L10.7048 18.8203L13.3918 19.9067L16.283 19.7038L16.0802 22.5951L17.1666 25.2821L14.3541 25.9825Z" fill="white"/>
<path d="M25.5326 6.01172C23.0694 6.01172 21.0656 8.01562 21.0656 10.4787C21.0656 11.0423 21.1713 11.5814 21.3627 12.0784C21.0015 12.1702 20.6701 12.3575 20.3997 12.6279L19.7098 13.3179C19.3216 13.7061 19.118 14.2098 19.0983 14.7194C18.6119 14.7538 18.1353 14.9559 17.7643 15.3269L17.2031 15.888C17.6102 16.1315 17.995 16.4085 18.3535 16.7154L18.7531 16.3157C19.0258 16.0431 19.4694 16.0432 19.742 16.3158C19.8741 16.4478 19.9468 16.6234 19.9468 16.8102C19.9468 16.997 19.8741 17.1725 19.742 17.3046L19.3365 17.7101C19.6398 18.0728 19.9129 18.4615 20.1518 18.8725L20.7308 18.2935C21.1188 17.9056 21.3224 17.4022 21.3423 16.893C21.8463 16.8578 22.3155 16.6453 22.6763 16.2845L23.3663 15.5945C23.6397 15.3211 23.8212 14.9902 23.9118 14.6406C24.4146 14.8372 24.961 14.9458 25.5326 14.9458C27.9957 14.9458 29.9996 12.9419 29.9996 10.4788C29.9996 8.01562 27.9957 6.01172 25.5326 6.01172ZM22.3774 14.6056L21.6874 15.2956C21.5553 15.4277 21.3797 15.5004 21.193 15.5004C21.0062 15.5004 20.8306 15.4277 20.6986 15.2956C20.426 15.023 20.426 14.5794 20.6986 14.3068L21.3885 13.6168C21.5249 13.4805 21.7039 13.4123 21.883 13.4123C22.062 13.4123 22.2411 13.4805 22.3774 13.6168C22.65 13.8894 22.65 14.333 22.3774 14.6056ZM25.5326 13.5473C24.9349 13.5473 24.377 13.3749 23.9048 13.0782L24.7631 12.2199L23.7743 11.2311L22.9198 12.0856C22.6311 11.6179 22.464 11.0676 22.464 10.4788C22.464 8.78677 23.8406 7.41023 25.5326 7.41023C27.2246 7.41023 28.6011 8.78677 28.6011 10.4788C28.6011 12.1708 27.2246 13.5473 25.5326 13.5473Z" fill="white"/>
<path d="M14.7692 21.2205L13.1659 21.333L11.6758 20.7305L11.2873 22.2901L10.2539 23.5211L11.6172 24.3725L12.4685 25.7357L13.6995 24.7023L15.2591 24.3138L14.6567 22.8237L14.7692 21.2205Z" fill="white"/>
</g>
<defs>
<clipPath id="clip0_17315_39959">
<rect width="24" height="24" fill="white" transform="translate(6 6)"/>
</clipPath>
</defs>
</svg>
