<svg width="37" height="37" viewBox="0 0 37 37" fill="none" xmlns="http://www.w3.org/2000/svg">
<circle cx="18.873" cy="18.1602" r="17.5" fill="#48C8F0" stroke="#2CAAD1"/>
<path d="M15.4377 15.9556C15.6989 15.5701 16.0311 15.238 16.4165 14.9768L13.2067 7.22656C10.8063 8.40402 8.86496 10.3454 7.6875 12.7458L15.4377 15.9556Z" fill="white"/>
<path d="M29.7912 21.9023C30.6622 19.3723 30.6622 16.6237 29.7912 14.0938L22.041 17.3036C22.1294 17.7618 22.1294 18.2326 22.041 18.6909L29.7912 21.9023Z" fill="white"/>
<path d="M20.502 14.9768C20.8874 15.238 21.2195 15.5701 21.4807 15.9556L29.2309 12.7458C28.0535 10.3454 26.1121 8.40402 23.7118 7.22656L20.502 14.9768Z" fill="white"/>
<path d="M16.4165 21.0178C16.0311 20.7567 15.6989 20.4245 15.4377 20.0391L7.6875 23.2489C8.86496 25.6493 10.8063 27.5906 13.2067 28.7681L16.4165 21.0178Z" fill="white"/>
<path d="M14.878 18.6909C14.7897 18.2326 14.7897 17.7618 14.878 17.3036L7.12782 14.0938C6.25687 16.6237 6.25687 19.3723 7.12782 21.9023L14.878 18.6909Z" fill="white"/>
<path d="M21.4807 20.0391C21.2195 20.4245 20.8874 20.7567 20.502 21.0178L23.7118 28.7681C26.1121 27.5906 28.0535 25.6493 29.2309 23.2489L21.4807 20.0391Z" fill="white"/>
<path d="M19.1537 21.5781C18.6955 21.6665 18.2247 21.6665 17.7664 21.5781L14.5566 29.3283C17.0866 30.1993 19.8352 30.1993 22.3652 29.3283L19.1537 21.5781Z" fill="white"/>
<path d="M18.46 15.8086C18.0271 15.8086 17.604 15.9369 17.2441 16.1774C16.8842 16.4179 16.6037 16.7597 16.4381 17.1596C16.2724 17.5595 16.2291 17.9995 16.3135 18.4241C16.398 18.8486 16.6064 19.2385 16.9125 19.5446C17.2185 19.8507 17.6085 20.0591 18.033 20.1435C18.4576 20.228 18.8976 20.1846 19.2975 20.019C19.6974 19.8534 20.0392 19.5729 20.2797 19.213C20.5201 18.8531 20.6485 18.4299 20.6485 17.9971C20.6478 17.4169 20.417 16.8606 20.0068 16.4503C19.5965 16.04 19.0402 15.8093 18.46 15.8086ZM18.46 18.7266C18.3157 18.7266 18.1747 18.6838 18.0547 18.6037C17.9347 18.5235 17.8412 18.4096 17.786 18.2763C17.7308 18.143 17.7164 17.9963 17.7445 17.8548C17.7727 17.7133 17.8421 17.5833 17.9442 17.4813C18.0462 17.3792 18.1762 17.3098 18.3177 17.2816C18.4592 17.2535 18.6059 17.2679 18.7392 17.3231C18.8725 17.3783 18.9864 17.4718 19.0665 17.5918C19.1467 17.7118 19.1895 17.8528 19.1895 17.9971C19.1894 18.1905 19.1125 18.376 18.9757 18.5128C18.8389 18.6496 18.6534 18.7265 18.46 18.7266Z" fill="white"/>
<path d="M16.4313 4.52176L17.7861 7.77325C17.8414 7.90625 17.9348 8.0199 18.0547 8.09985C18.1745 8.17979 18.3153 8.22246 18.4593 8.22246C18.6034 8.22246 18.7442 8.17979 18.864 8.09985C18.9838 8.0199 19.0773 7.90625 19.1325 7.77325L20.4873 4.52176C20.5336 4.41093 20.5518 4.29037 20.5403 4.17081C20.5287 4.05125 20.4879 3.93639 20.4212 3.83644C20.3546 3.73649 20.2643 3.65455 20.1584 3.5979C20.0525 3.54125 19.9342 3.51164 19.8141 3.51172H17.1045C16.9844 3.51164 16.8661 3.54125 16.7602 3.5979C16.6543 3.65455 16.564 3.73649 16.4974 3.83644C16.4308 3.93639 16.3899 4.05125 16.3784 4.17081C16.3668 4.29037 16.385 4.41093 16.4313 4.52176Z" fill="white"/>
<path d="M21.304 6.35156L20.4791 8.33164C20.3129 8.73043 20.0324 9.0711 19.6729 9.31074C19.3134 9.55038 18.891 9.67825 18.459 9.67825C18.0269 9.67825 17.6046 9.55038 17.2451 9.31074C16.8856 9.0711 16.6051 8.73043 16.4389 8.33164L15.6139 6.35156C15.2543 6.43966 14.9012 6.54359 14.5547 6.66337L17.7645 14.4136C18.2227 14.3252 18.6936 14.3252 19.1518 14.4136L22.3616 6.66337C22.0162 6.54387 21.6636 6.43994 21.304 6.35156Z" fill="white"/>
</svg>
