<svg width="24" height="24" viewBox="0 0 24 24" fill="none" xmlns="http://www.w3.org/2000/svg">
<path d="M19.5 2.99976H17.25V2.24976C17.25 2.05084 17.171 1.86008 17.0303 1.71943C16.8897 1.57877 16.6989 1.49976 16.5 1.49976C16.3011 1.49976 16.1103 1.57877 15.9697 1.71943C15.829 1.86008 15.75 2.05084 15.75 2.24976V2.99976H8.25V2.24976C8.25 2.05084 8.17098 1.86008 8.03033 1.71943C7.88968 1.57877 7.69891 1.49976 7.5 1.49976C7.30109 1.49976 7.11032 1.57877 6.96967 1.71943C6.82902 1.86008 6.75 2.05084 6.75 2.24976V2.99976H4.5C4.1023 3.00015 3.72099 3.15831 3.43977 3.43953C3.15855 3.72075 3.00039 4.10205 3 4.49976V19.4998C3.00039 19.8975 3.15855 20.2788 3.43977 20.56C3.72099 20.8412 4.1023 20.9994 4.5 20.9998H19.5C19.8977 20.9994 20.279 20.8412 20.5602 20.56C20.8414 20.2788 20.9996 19.8975 21 19.4998V4.49976C20.9996 4.10205 20.8414 3.72075 20.5602 3.43953C20.279 3.15831 19.8977 3.00015 19.5 2.99976ZM15.8895 12.5452L11.5145 16.6702C11.3752 16.8017 11.1908 16.8748 10.9992 16.8746C10.8076 16.8744 10.6233 16.8008 10.4843 16.669L8.10924 14.419C8.03756 14.3513 7.97994 14.2702 7.93965 14.1802C7.89937 14.0902 7.87723 13.9932 7.87449 13.8946C7.87175 13.7961 7.88847 13.6979 7.92369 13.6059C7.9589 13.5138 8.01193 13.4295 8.07974 13.358C8.14754 13.2864 8.22879 13.2289 8.31884 13.1888C8.40889 13.1486 8.50596 13.1266 8.60452 13.124C8.70307 13.1214 8.80117 13.1383 8.8932 13.1737C8.98523 13.209 9.06939 13.2622 9.14085 13.3301L11.0013 15.0926L14.8606 11.4539C14.9322 11.3864 15.0165 11.3336 15.1085 11.2986C15.2006 11.2636 15.2986 11.247 15.3971 11.2499C15.4955 11.2528 15.5924 11.2751 15.6823 11.3154C15.7721 11.3558 15.8531 11.4134 15.9207 11.4851C15.9883 11.5567 16.041 11.641 16.076 11.7331C16.111 11.8251 16.1276 11.9232 16.1247 12.0216C16.1218 12.1201 16.0995 12.217 16.0592 12.3068C16.0188 12.3966 15.9612 12.4777 15.8895 12.5452H15.8895ZM19.5 7.49976H4.5V4.49976H6.75V5.24976C6.75 5.44867 6.82902 5.63943 6.96967 5.78009C7.11032 5.92074 7.30109 5.99976 7.5 5.99976C7.69891 5.99976 7.88968 5.92074 8.03033 5.78009C8.17098 5.63943 8.25 5.44867 8.25 5.24976V4.49976H15.75V5.24976C15.75 5.44867 15.829 5.63943 15.9697 5.78009C16.1103 5.92074 16.3011 5.99976 16.5 5.99976C16.6989 5.99976 16.8897 5.92074 17.0303 5.78009C17.171 5.63943 17.25 5.44867 17.25 5.24976V4.49976H19.5V7.49976Z" fill="#020722"/>
</svg>
