<svg width="20" height="20" viewBox="0 0 20 20" fill="none" xmlns="http://www.w3.org/2000/svg">
    <circle cx="10" cy="10" r="10" fill="#EFAA5D"/>
    <g clip-path="url(#clip0_8991_16887)">
        <g filter="url(#filter0_d_8991_16887)">
            <path fill-rule="evenodd" clip-rule="evenodd" d="M10.8677 5.18725C10.8677 5.84296 11.3992 6.37451 12.0549 6.37451C12.7106 6.37451 13.2422 5.84296 13.2422 5.18725C13.2422 4.53155 12.7106 4 12.0549 4C11.3992 4 10.8677 4.53155 10.8677 5.18725ZM7.88491 10.098C7.32251 11.1262 6.57593 12.1943 5.33117 11.4662C4.43302 10.9414 3.62321 12.3328 4.51859 12.8561C6.21805 13.8493 7.6373 13.1382 8.65461 11.8472C8.68979 11.8662 8.72713 11.8832 8.76804 11.8974C9.599 12.1869 10.3576 12.6543 11.02 13.2309C11.0671 13.2722 11.1161 13.3054 11.1655 13.3333C11.4762 13.9745 11.787 14.6168 12.0976 15.2585L12.2604 15.595C12.6711 16.4431 13.9975 15.8254 13.5852 14.9733C13.3933 14.5764 13.2012 14.1796 13.0092 13.7829C12.8173 13.3864 12.6254 12.99 12.4335 12.5934C12.3563 12.4338 12.2466 12.3261 12.1223 12.2622C12.1016 12.2399 12.0796 12.2176 12.0549 12.196C11.4838 11.699 10.8694 11.2769 10.2059 10.9376C10.6548 10.0681 11.1222 9.20774 11.6144 8.36235C13.1831 8.84295 14.6741 8.27679 15.736 6.78936C16.2856 6.01966 15.0157 5.29008 14.4723 6.05088C13.64 7.2168 12.5254 7.35176 11.3261 6.63977C11.2445 6.59135 11.1637 6.56112 11.0852 6.54531C11.0566 6.53187 11.0275 6.51922 10.9983 6.50776C10.9467 6.4471 10.8823 6.39177 10.8021 6.34414C8.87277 5.19878 6.94566 5.64795 5.65328 7.45788C5.10391 8.22758 6.37417 8.95717 6.9172 8.19636C7.58494 7.26126 8.43407 6.99073 9.36265 7.28695C8.8872 8.11218 8.43289 8.95045 7.99755 9.79722C7.94558 9.89859 7.90941 9.99898 7.88491 10.098Z" fill="white"/>
        </g>
    </g>
    <defs>
        <filter id="filter0_d_8991_16887" x="3.12891" y="3" width="13.7422" height="14.0001" filterUnits="userSpaceOnUse" color-interpolation-filters="sRGB">
            <feFlood flood-opacity="0" result="BackgroundImageFix"/>
            <feColorMatrix in="SourceAlpha" type="matrix" values="0 0 0 0 0 0 0 0 0 0 0 0 0 0 0 0 0 0 127 0" result="hardAlpha"/>
            <feOffset/>
            <feGaussianBlur stdDeviation="0.5"/>
            <feComposite in2="hardAlpha" operator="out"/>
            <feColorMatrix type="matrix" values="0 0 0 0 0 0 0 0 0 0 0 0 0 0 0 0 0 0 0.4 0"/>
            <feBlend mode="normal" in2="BackgroundImageFix" result="effect1_dropShadow_8991_16887"/>
            <feBlend mode="normal" in="SourceGraphic" in2="effect1_dropShadow_8991_16887" result="shape"/>
        </filter>
        <clipPath id="clip0_8991_16887">
            <rect width="12" height="12" fill="white" transform="matrix(-1 0 0 1 16 4)"/>
        </clipPath>
    </defs>
</svg>
