<svg width="48" height="48" viewBox="0 0 48 48" fill="none" xmlns="http://www.w3.org/2000/svg">
<g opacity="0.8">
<path fill-rule="evenodd" clip-rule="evenodd" d="M11.1304 34.4033H11.1172V46.4069C11.1172 47.2865 11.831 48.0003 12.7106 48.0003H26.7854H26.7856H40.8604C41.7399 48.0003 42.4538 47.2865 42.4538 46.4069V34.4033H42.4406L42.4538 34.3998V8.69301C42.4538 7.81345 41.7399 7.09961 40.8604 7.09961H26.7856H26.7854H12.7106C11.831 7.09961 11.1172 7.81345 11.1172 8.69301V34.3998L11.1304 34.4033Z" fill="#57317B"/>
<path fill-rule="evenodd" clip-rule="evenodd" d="M9.08744 32.3809H9.07422V44.3845C9.07422 45.264 9.78806 45.9779 10.6676 45.9779H24.7424H24.7426H38.8174C39.697 45.9779 40.4108 45.264 40.4108 44.3845V32.3809H40.3976L40.4108 32.3774V6.67055C40.4108 5.79099 39.697 5.07715 38.8174 5.07715H24.7426H24.7424H10.6676C9.78806 5.07715 9.07422 5.79099 9.07422 6.67055V32.3774L9.08744 32.3809Z" fill="#351C4F"/>
</g>
<path fill-rule="evenodd" clip-rule="evenodd" d="M8.07182 31.3564H8.05859V43.3601C8.05859 44.2396 8.77244 44.9534 9.65199 44.9534H23.7268H23.727H37.8018C38.6813 44.9534 39.3952 44.2396 39.3952 43.3601V31.3564H39.382L39.3952 31.353V5.64613C39.3952 4.76658 38.6813 4.05273 37.8018 4.05273H23.727H23.7268H9.65199C8.77244 4.05273 8.05859 4.76658 8.05859 5.64613V31.353L8.07182 31.3564Z" fill="#57317B"/>
<path fill-rule="evenodd" clip-rule="evenodd" d="M6.03276 29.3174H6.01953V41.321C6.01953 42.2005 6.73337 42.9144 7.61293 42.9144H21.6877H21.688H35.7627C36.6423 42.9144 37.3561 42.2005 37.3561 41.321V29.3174H37.3429L37.3561 29.3139V3.60707C37.3561 2.72751 36.6423 2.01367 35.7627 2.01367H21.688H21.6877H7.61293C6.73337 2.01367 6.01953 2.72751 6.01953 3.60707V29.3139L6.03276 29.3174Z" fill="#351C4F"/>
<path fill-rule="evenodd" clip-rule="evenodd" d="M20.6684 32.4112L20.6685 32.4111L36.3366 28.3002V2.5934C36.3366 1.71384 35.6228 1 34.7432 1H20.6684H20.6682H6.5934C5.71384 1 5 1.71384 5 2.5934V28.3002L20.6682 32.4111V32.4112L20.6683 32.4112L20.6684 32.4112Z" fill="#7B48AB"/>
<path d="M20.6684 28.3037L25.8541 36.6111L20.6684 41.9007H6.5934C5.71384 41.9007 5 41.1869 5 40.3073V28.3037H20.6684Z" fill="#5F3288"/>
<path d="M36.3364 28.3037V40.3073C36.3364 41.1869 35.6226 41.9007 34.743 41.9007H20.668V28.3037H36.3364Z" fill="#5F3288"/>
<path fill-rule="evenodd" clip-rule="evenodd" d="M15.0934 36.6927H20.6699H20.6703H26.2468C27.1263 36.6927 27.8402 35.9788 27.8402 35.0993C27.8402 34.2197 27.1263 33.5059 26.2468 33.5059H20.6703H20.6699H15.0934C14.2138 33.5059 13.5 34.2197 13.5 35.0993C13.5 35.9788 14.2138 36.6927 15.0934 36.6927Z" fill="#3C2158"/>
<circle cx="20.5" cy="13.5" r="8.5" fill="#4CCBC9"/>
<path d="M17.8125 12.093C17.8492 11.3597 18.1059 10.795 18.5825 10.399C19.0665 9.99567 19.7009 9.794 20.4855 9.794C21.0209 9.794 21.4792 9.88933 21.8605 10.08C22.2419 10.2633 22.5279 10.5163 22.7185 10.839C22.9165 11.1543 23.0155 11.5137 23.0155 11.917C23.0155 12.379 22.8945 12.7713 22.6525 13.094C22.4179 13.4093 22.1355 13.622 21.8055 13.732V13.776C22.2309 13.908 22.5609 14.1427 22.7955 14.48C23.0375 14.8173 23.1585 15.25 23.1585 15.778C23.1585 16.218 23.0559 16.6103 22.8505 16.955C22.6525 17.2997 22.3555 17.571 21.9595 17.769C21.5709 17.9597 21.1015 18.055 20.5515 18.055C19.7229 18.055 19.0482 17.846 18.5275 17.428C18.0069 17.01 17.7319 16.394 17.7025 15.58H19.1985C19.2132 15.9393 19.3342 16.229 19.5615 16.449C19.7962 16.6617 20.1152 16.768 20.5185 16.768C20.8925 16.768 21.1785 16.6653 21.3765 16.46C21.5819 16.2473 21.6845 15.976 21.6845 15.646C21.6845 15.206 21.5452 14.8907 21.2665 14.7C20.9879 14.5093 20.5552 14.414 19.9685 14.414H19.6495V13.149H19.9685C21.0099 13.149 21.5305 12.8007 21.5305 12.104C21.5305 11.7887 21.4352 11.543 21.2445 11.367C21.0612 11.191 20.7935 11.103 20.4415 11.103C20.0969 11.103 19.8292 11.1983 19.6385 11.389C19.4552 11.5723 19.3489 11.807 19.3195 12.093H17.8125Z" fill="#280748"/>
</svg>
