<svg width="34" height="34" viewBox="0 0 34 34" fill="none" xmlns="http://www.w3.org/2000/svg">
<circle cx="17.1087" cy="17.1061" r="15.696" transform="rotate(90 17.1087 17.1061)" fill="#48C8F0" stroke="#2CAAD1"/>
<g clip-path="url(#clip0_21268_33360)">
<g style="mix-blend-mode:multiply" opacity="0.3">
<path d="M23.9645 26.3576C23.9666 26.7092 20.9582 27.0118 17.2465 27.0346C13.5349 27.0575 10.5217 26.7919 10.5195 26.4404C10.5174 26.0888 13.5258 25.7862 17.2375 25.7633C20.9491 25.7405 23.9611 26.006 23.9632 26.3576L23.9645 26.3576Z" fill="#F6F6F6"/>
</g>
<path d="M15.1298 5.75814L13.9204 6.79365L13.9624 13.6127L15.1781 13.6052L15.1298 5.75814Z" fill="#F6F6F6"/>
<path d="M19.0977 5.73438L20.321 6.75491L20.3629 13.574L19.146 13.5815L19.0977 5.73438Z" fill="#F6F6F6"/>
<path d="M10.9941 11.5664L23.3051 11.4906L23.3905 25.3619C23.3939 25.9148 22.9605 26.3659 22.4226 26.3692L12.0598 26.433C11.5219 26.4363 11.0829 25.9906 11.0795 25.4377L10.9941 11.5664Z" fill="#F6F6F6"/>
<path d="M11.2129 12.6719L11.3133 12.6713" stroke="#F6F6F6" stroke-width="0.41" stroke-miterlimit="10" stroke-linecap="round"/>
<path d="M11.6113 12.668L22.8528 12.5988" stroke="#F6F6F6" stroke-width="0.41" stroke-miterlimit="10" stroke-linecap="round"/>
<path d="M23 12.5977L23.1004 12.597" stroke="#F6F6F6" stroke-width="0.41" stroke-miterlimit="10" stroke-linecap="round"/>
<path d="M11.4668 13.1094L11.5403 25.052" stroke="#F6F6F6" stroke-width="0.41" stroke-miterlimit="10" stroke-linecap="round"/>
<path d="M22.8535 13.0391L22.927 24.9817" stroke="#F6F6F6" stroke-width="0.41" stroke-miterlimit="10" stroke-linecap="round"/>
<path d="M19.1053 6.98405L19.0977 5.73438L15.1295 5.7588L15.1372 7.00848L19.1053 6.98405Z" fill="#B9B9B9"/>
<path d="M11.7051 25.2617L12.5319 26.1025" stroke="#F6F6F6" stroke-width="0.41" stroke-miterlimit="10" stroke-linecap="round"/>
<path d="M22.7767 25.1903L21.9603 26.0412" stroke="#F6F6F6" stroke-width="0.41" stroke-miterlimit="10" stroke-linecap="round"/>
</g>
<defs>
<clipPath id="clip0_21268_33360">
<rect width="13.4452" height="21.2882" fill="white" transform="translate(10.3926 5.78906) rotate(-0.352661)"/>
</clipPath>
</defs>
</svg>
