<svg width="20" height="16" viewBox="0 0 20 16" fill="none" xmlns="http://www.w3.org/2000/svg">
<path d="M18.5695 5.33333H16.6925L12.586 0.200172C12.402 -0.0297661 12.0664 -0.0671351 11.8364 0.116901C11.6064 0.300901 11.5691 0.63651 11.7531 0.866519L15.3266 5.33333H4.67476L8.24823 0.866519C8.43223 0.63651 8.39494 0.300865 8.16496 0.116901C7.93492 -0.0671351 7.59931 -0.0298017 7.41534 0.200172L3.30878 5.33333H1.43177C1.13723 5.33333 0.898438 5.57212 0.898438 5.86666V6.93333C0.898438 7.22787 1.13723 7.46666 1.43177 7.46666H18.5695C18.8641 7.46666 19.1029 7.22787 19.1029 6.93333V5.86666C19.1029 5.57212 18.8641 5.33333 18.5695 5.33333Z" fill="#280748"/>
<path d="M4.11849 15.615C4.18392 15.844 4.3932 16.0018 4.63131 16.0018H15.3691C15.6072 16.0018 15.8165 15.844 15.8819 15.615L17.9047 8.53516H2.0957L4.11849 15.615ZM12.443 13.2475L12.9763 10.0475C13.0248 9.75695 13.2995 9.56054 13.5901 9.60911C13.8807 9.65754 14.0769 9.93231 14.0285 10.2229L13.4952 13.4229C13.4517 13.6837 13.2257 13.8686 12.9697 13.8686C12.9406 13.8686 12.9111 13.8662 12.8814 13.8613C12.5908 13.8128 12.3946 13.538 12.443 13.2475ZM9.46687 10.1352C9.46687 9.84061 9.70566 9.60182 10.0002 9.60182C10.2947 9.60182 10.5335 9.84061 10.5335 10.1352V13.3352C10.5335 13.6297 10.2947 13.8685 10.0002 13.8685C9.70566 13.8685 9.46687 13.6297 9.46687 13.3352V10.1352ZM6.44585 9.60911C6.73645 9.56072 7.01119 9.75695 7.05961 10.0475L7.59295 13.2475C7.64137 13.538 7.44511 13.8128 7.15455 13.8613C7.12489 13.8662 7.09535 13.8686 7.06623 13.8686C6.81019 13.8686 6.58427 13.6838 6.54079 13.4229L6.00745 10.2229C5.95903 9.93231 6.15529 9.6575 6.44585 9.60911Z" fill="#280748"/>
</svg>
