<svg width="36" height="36" viewBox="0 0 36 36" fill="none" xmlns="http://www.w3.org/2000/svg">
<circle cx="18" cy="18" r="17.5" fill="#EFAA5D" stroke="#BE7829"/>
<g clip-path="url(#clip0_17467_35458)">
<path d="M25.9075 11.9016C25.5677 11.9016 25.2356 11.9435 24.9147 12.0195V10.2849C24.9147 10.2601 24.9147 10.1389 24.9147 10.0987C24.9147 7.97505 20.7897 7.00781 16.9569 7.00781C13.125 7.00777 9 7.97505 9 10.0987C9 10.1389 9 10.2601 9 10.2849V25.8991C9 28.0222 13.125 28.9891 16.957 28.9891C20.7898 28.9891 24.9148 28.0222 24.9148 25.8983V23.9686C25.2356 24.0449 25.5678 24.0866 25.9075 24.0866C28.7158 24.0866 31 21.3534 31 17.994C31 14.6347 28.7157 11.9016 25.9075 11.9016ZM16.957 8.48556C21.1664 8.48556 23.437 9.63063 23.437 10.0987C23.437 10.5667 21.1664 11.7111 16.957 11.7111C12.7483 11.7111 10.4777 10.5667 10.4777 10.0987C10.4777 9.63063 12.7483 8.48556 16.957 8.48556ZM25.9075 21.8701C25.5576 21.8701 25.2257 21.7732 24.9147 21.6178V14.3703C25.2257 14.2152 25.5576 14.118 25.9075 14.118C27.4934 14.118 28.7834 15.857 28.7834 17.994C28.7834 20.1311 27.4934 21.8701 25.9075 21.8701Z" fill="white"/>
</g>
<defs>
<clipPath id="clip0_17467_35458">
<rect width="22" height="22" fill="white" transform="translate(9 7)"/>
</clipPath>
</defs>
</svg>
