<svg width="28" height="28" viewBox="0 0 28 28" fill="none" xmlns="http://www.w3.org/2000/svg">
<path opacity="0.5" d="M10.8293 13.1691C11.1034 12.7646 11.4521 12.4159 11.8566 12.1418L8.48781 4.00781C5.96856 5.24358 3.93108 7.28106 2.69531 9.80031L10.8293 13.1691Z" fill="white"/>
<path d="M25.8918 19.4101C26.8059 16.7548 26.8059 13.8701 25.8918 11.2148L17.7578 14.5836C17.8506 15.0645 17.8506 15.5587 17.7578 16.0396L25.8918 19.4101Z" fill="white"/>
<path opacity="0.5" d="M16.1445 12.1418C16.549 12.4159 16.8977 12.7646 17.1718 13.1691L25.3058 9.80031C24.07 7.28106 22.0325 5.24358 19.5133 4.00781L16.1445 12.1418Z" fill="white"/>
<path opacity="0.5" d="M11.8566 18.4843C11.4521 18.2102 11.1034 17.8615 10.8293 17.457L2.69531 20.8258C3.93108 23.345 5.96856 25.3825 8.48781 26.6183L11.8566 18.4843Z" fill="white"/>
<path d="M10.2414 16.0396C10.1487 15.5587 10.1487 15.0645 10.2414 14.5836L2.10744 11.2148C1.19335 13.8701 1.19335 16.7548 2.10744 19.4101L10.2414 16.0396Z" fill="white"/>
<path opacity="0.5" d="M17.1718 17.457C16.8977 17.8615 16.549 18.2102 16.1445 18.4843L19.5133 26.6183C22.0325 25.3825 24.07 23.345 25.3058 20.8258L17.1718 17.457Z" fill="white"/>
<path d="M14.7271 19.0703C14.2462 19.1631 13.752 19.1631 13.2711 19.0703L9.90234 27.2043C12.5576 28.1184 15.4423 28.1184 18.0976 27.2043L14.7271 19.0703Z" fill="white"/>
<path opacity="0.5" d="M14 13.0156C13.5457 13.0156 13.1016 13.1503 12.7239 13.4027C12.3462 13.6551 12.0518 14.0138 11.878 14.4335C11.7041 14.8532 11.6586 15.315 11.7473 15.7606C11.8359 16.2061 12.0546 16.6154 12.3759 16.9366C12.6971 17.2579 13.1064 17.4766 13.5519 17.5652C13.9975 17.6539 14.4593 17.6084 14.879 17.4345C15.2987 17.2607 15.6574 16.9663 15.9098 16.5886C16.1622 16.2109 16.2969 15.7668 16.2969 15.3125C16.2962 14.7035 16.054 14.1197 15.6234 13.6891C15.1928 13.2585 14.609 13.0163 14 13.0156ZM14 16.0781C13.8486 16.0781 13.7005 16.0332 13.5746 15.9491C13.4487 15.865 13.3506 15.7454 13.2927 15.6055C13.2347 15.4656 13.2195 15.3117 13.2491 15.1631C13.2786 15.0146 13.3515 14.8782 13.4586 14.7711C13.5657 14.664 13.7021 14.5911 13.8506 14.5616C13.9992 14.532 14.1531 14.5472 14.293 14.6052C14.4329 14.6631 14.5525 14.7612 14.6366 14.8871C14.7207 15.013 14.7656 15.1611 14.7656 15.3125C14.7655 15.5155 14.6848 15.7102 14.5413 15.8538C14.3977 15.9973 14.203 16.078 14 16.0781Z" fill="white"/>
<path d="M11.8716 1.16944L13.2935 4.58194C13.3515 4.72153 13.4496 4.8408 13.5753 4.9247C13.7011 5.00861 13.8489 5.05339 14 5.05339C14.1512 5.05339 14.299 5.00861 14.4247 4.9247C14.5505 4.8408 14.6486 4.72153 14.7066 4.58194L16.1285 1.16944C16.1771 1.05311 16.1961 0.926582 16.184 0.801101C16.1719 0.675619 16.129 0.555072 16.0591 0.450173C15.9892 0.345275 15.8944 0.259277 15.7833 0.199821C15.6721 0.140366 15.548 0.109297 15.4219 0.109375H12.5782C12.4521 0.109297 12.328 0.140366 12.2168 0.199821C12.1056 0.259277 12.0109 0.345275 11.941 0.450173C11.8711 0.555072 11.8281 0.675619 11.816 0.801101C11.8039 0.926582 11.823 1.05311 11.8716 1.16944Z" fill="white"/>
<path d="M16.9859 3.09375L16.1201 5.17188C15.9457 5.59041 15.6513 5.94796 15.274 6.19946C14.8967 6.45097 14.4534 6.58518 14 6.58518C13.5465 6.58518 13.1033 6.45097 12.726 6.19946C12.3487 5.94796 12.0543 5.59041 11.8798 5.17188L11.014 3.09375C10.6366 3.18621 10.2661 3.29529 9.90234 3.421L13.2711 11.555C13.752 11.4623 14.2462 11.4623 14.7271 11.555L18.0958 3.421C17.7333 3.29558 17.3633 3.1865 16.9859 3.09375Z" fill="white"/>
</svg>
