<svg width="32" height="32" viewBox="0 0 32 32" fill="none" xmlns="http://www.w3.org/2000/svg">
<circle cx="16" cy="16" r="15.5" fill="#E4007B" stroke="#AD005D"/>
<path opacity="0.2" d="M26.4104 19.2489H26.3726H26.3664H23.532L23.5505 19.2304L20.6034 19.2111C20.1756 19.208 19.8019 18.9208 19.6892 18.5077L18.6345 14.6394L16.2363 21.0341C16.0974 21.4047 15.7437 21.651 15.3476 21.6533C15.3461 21.6533 15.3446 21.6533 15.343 21.6533C14.9492 21.6533 14.5948 21.4108 14.4528 21.0433L12.7287 16.5798L11.877 18.6899C11.7311 19.0505 11.3813 19.2868 10.9922 19.2868H9.08352C8.55695 19.2868 8.1292 18.8598 8.1292 18.3324C8.1292 17.8059 8.55617 17.3781 9.08352 17.3781H10.3482L11.8631 13.6241C12.009 13.2628 12.3588 13.0273 12.748 13.0273C12.7503 13.0273 12.7526 13.0273 12.7549 13.0273C13.1464 13.0304 13.4969 13.272 13.6382 13.6373L15.3299 18.0167L17.8848 11.2036C18.03 10.816 18.4098 10.565 18.8221 10.5851C19.236 10.6044 19.5896 10.8878 19.6985 11.287L21.34 17.3063L25.2785 17.3326C26.9077 14.8981 26.6506 11.5526 24.5056 9.40687C22.0673 6.96854 18.0763 6.96854 15.638 9.40687L15.3469 9.69795L15.0558 9.40687C12.6175 6.96854 8.62644 6.96854 6.18812 9.40687C3.74979 11.8452 3.74979 15.8362 6.18812 18.2745L6.4792 18.5656L15.3469 27.4333L21.6241 21.1561H26.4112C26.9154 21.1561 27.3269 20.7437 27.3269 20.2403V20.1639C27.3261 19.6605 26.9138 19.2489 26.4104 19.2489Z" fill="#070707"/>
<path d="M26.7159 18.9443H26.6781H26.6719H23.8375L23.856 18.9257L20.9089 18.9064C20.4811 18.9033 20.1074 18.6161 19.9947 18.203L18.94 14.3348L16.5418 20.7294C16.4028 21.1 16.0492 21.3463 15.6531 21.3486C15.6516 21.3486 15.65 21.3486 15.6485 21.3486C15.2547 21.3486 14.9003 21.1062 14.7582 20.7386L13.0341 16.2751L12.1825 18.3852C12.0365 18.7458 11.6868 18.9821 11.2976 18.9821H9.38821C8.86163 18.9821 8.43389 18.5551 8.43389 18.0278C8.43389 17.5012 8.86086 17.0734 9.38821 17.0734H10.6529L12.1678 13.3194C12.3137 12.9581 12.6635 12.7226 13.0526 12.7226C13.055 12.7226 13.0573 12.7226 13.0596 12.7226C13.451 12.7257 13.8016 12.9674 13.9429 13.3326L15.6346 17.712L18.1895 10.8989C18.3346 10.5113 18.7145 10.2603 19.1268 10.2804C19.5407 10.2997 19.8943 10.5831 20.0032 10.9823L21.6447 17.0016L25.5832 17.0279C27.2124 14.5934 26.9552 11.2479 24.8103 9.10218C22.372 6.66386 18.381 6.66386 15.9426 9.10218L15.6516 9.39326L15.3605 9.10218C12.9222 6.66386 8.93112 6.66386 6.4928 9.10218C4.05448 11.5405 4.05448 15.5315 6.4928 17.9699L6.78389 18.2609L15.6516 27.1286L21.9288 20.8514H26.7159C27.2201 20.8514 27.6316 20.4391 27.6316 19.9356V19.8592C27.6316 19.3566 27.2201 18.9443 26.7159 18.9443Z" fill="white"/>
</svg>
