<svg width="28" height="28" viewBox="0 0 28 28" fill="none" xmlns="http://www.w3.org/2000/svg">
<circle cx="14" cy="14" r="13.5" fill="#E4007B" stroke="white"/>
<path opacity="0.2" d="M23.1111 16.8448H23.078H23.0726H20.5925L20.6087 16.8286L18.0299 16.8117C17.6556 16.809 17.3287 16.5576 17.23 16.1962L16.3072 12.8115L14.2088 18.4068C14.0871 18.731 13.7777 18.9466 13.4311 18.9486C13.4298 18.9486 13.4284 18.9486 13.4271 18.9486C13.0825 18.9486 12.7724 18.7364 12.6481 18.4149L11.1395 14.5092L10.3943 16.3556C10.2667 16.6712 9.96061 16.8779 9.62011 16.8779H7.95004C7.48928 16.8779 7.115 16.5043 7.115 16.0428C7.115 15.5821 7.48861 15.2078 7.95004 15.2078H9.05666L10.3822 11.9231C10.5099 11.6069 10.8159 11.4008 11.1564 11.4008C11.1584 11.4008 11.1605 11.4008 11.1625 11.4008C11.505 11.4035 11.8117 11.615 11.9354 11.9345L13.4156 15.7665L15.6512 9.80507C15.7782 9.46592 16.1106 9.24635 16.4713 9.26392C16.8334 9.28081 17.1429 9.52875 17.2381 9.87804L18.6744 15.145L22.1207 15.1679C23.5462 13.0378 23.3212 10.1104 21.4444 8.23296C19.3109 6.09943 15.8187 6.09943 13.6852 8.23296L13.4305 8.48766L13.1758 8.23296C11.0422 6.09943 7.55008 6.09943 5.41655 8.23296C3.28302 10.3665 3.28302 13.8586 5.41655 15.9922L5.67125 16.2469L13.4305 24.0061L18.9231 18.5135H23.1118C23.5529 18.5135 23.913 18.1527 23.913 17.7122V17.6454C23.9123 17.2049 23.5516 16.8448 23.1111 16.8448Z" fill="#070707"/>
<path d="M23.3793 16.5792H23.3462H23.3408H20.8607L20.8769 16.5629L18.2982 16.546C17.9239 16.5433 17.5969 16.292 17.4983 15.9306L16.5754 12.5458L14.477 18.1411C14.3554 18.4654 14.046 18.6809 13.6994 18.683C13.698 18.683 13.6967 18.683 13.6953 18.683C13.3508 18.683 13.0407 18.4708 12.9164 18.1492L11.4078 14.2436L10.6626 16.09C10.5349 16.4055 10.2289 16.6123 9.88836 16.6123H8.21762C7.75686 16.6123 7.38258 16.2387 7.38258 15.7772C7.38258 15.3165 7.75618 14.9422 8.21762 14.9422H9.32424L10.6498 11.6574C10.7774 11.3413 11.0835 11.1352 11.424 11.1352C11.426 11.1352 11.428 11.1352 11.4301 11.1352C11.7726 11.1379 12.0793 11.3494 12.203 11.6689L13.6832 15.5009L15.9187 9.53945C16.0457 9.2003 16.3781 8.98073 16.7389 8.99829C17.101 9.01518 17.4104 9.26313 17.5057 9.61241L18.942 14.8794L22.3882 14.9023C23.8137 12.7722 23.5888 9.84482 21.712 7.96734C19.5784 5.8338 16.0863 5.8338 13.9527 7.96734L13.698 8.22204L13.4433 7.96734C11.3098 5.8338 7.81766 5.8338 5.68413 7.96734C3.5506 10.1009 3.5506 13.593 5.68413 15.7266L5.93883 15.9813L13.698 23.7405L19.1906 18.2479H23.3793C23.8205 18.2479 24.1806 17.8871 24.1806 17.4466V17.3797C24.1806 16.9399 23.8205 16.5792 23.3793 16.5792Z" fill="white"/>
</svg>
