<svg width="36" height="36" viewBox="0 0 36 36" fill="none" xmlns="http://www.w3.org/2000/svg">
<circle cx="18" cy="18" r="17.5" fill="#4CCBC9" stroke="#229290"/>
<path d="M25.7911 13.2681C25.7888 13.2639 25.787 13.2596 25.7846 13.2554C25.7836 13.2536 25.7823 13.252 25.7813 13.2503C25.6559 13.0377 25.4754 12.862 25.2583 12.7413L17.5522 8.45786C17.3422 8.34205 17.1057 8.28125 16.8652 8.28125C16.6248 8.28125 16.3883 8.34205 16.1783 8.45786L8.47197 12.7413C8.25413 12.8626 8.07311 13.0392 7.94769 13.2529C7.94634 13.2553 7.94471 13.2574 7.94339 13.2597C7.94125 13.2635 7.93971 13.2674 7.93766 13.2712C7.81999 13.4779 7.75806 13.7109 7.75781 13.948V22.484C7.75801 22.7296 7.82424 22.9708 7.94974 23.1828C8.07524 23.3948 8.25549 23.5701 8.47206 23.6907L16.1784 27.9742C16.3725 28.0814 16.5897 28.1414 16.812 28.1491C16.8279 28.1503 16.8438 28.1518 16.86 28.1519H16.8663C16.8884 28.1519 16.9101 28.1507 16.9317 28.1487C17.1494 28.1391 17.3619 28.0793 17.5521 27.9741L25.2583 23.6907C25.4749 23.5701 25.6552 23.3949 25.7807 23.1828C25.9062 22.9708 25.9724 22.7296 25.9726 22.484V13.948C25.9724 13.7097 25.9099 13.4755 25.7911 13.2681ZM16.8652 9.6646L23.8484 13.5462L21.167 15.0515L14.1015 11.2008L16.8652 9.6646ZM16.9449 17.4217L9.8927 13.5402L12.6652 11.9992L19.7379 15.8538L16.9449 17.4217ZM17.5764 26.3721L17.6453 18.6209L20.4576 17.0421V20.337C20.4576 20.5206 20.5314 20.6967 20.6628 20.8265C20.7942 20.9563 20.9724 21.0293 21.1582 21.0293C21.344 21.0293 21.5221 20.9563 21.6535 20.8265C21.7849 20.6967 21.8587 20.5206 21.8587 20.337V16.2555L24.5715 14.7327V22.484L17.5764 26.3721Z" fill="white"/>
<circle cx="26.8009" cy="8.98838" r="2.129" fill="#E4007B"/>
</svg>
