<svg width="24" height="24" viewBox="0 0 24 24" fill="none" xmlns="http://www.w3.org/2000/svg">
<path d="M14.2415 5.98047C10.9227 5.98047 8.22266 8.68052 8.22266 11.9993C8.22266 15.3181 10.9227 18.0182 14.2415 18.0182C17.5603 18.0182 20.2604 15.3181 20.2604 11.9993C20.2604 8.68052 17.5603 5.98047 14.2415 5.98047ZM17.0797 12.7024H13.5384V7.76692H14.9447V11.2962H17.0797V12.7024Z" fill="white"/>
<path opacity="0.5" d="M14.2675 2.24027C12.1263 2.2345 10.1455 2.91879 8.53383 4.08255H3.21206C2.37305 4.08255 1.69294 4.76271 1.69294 5.60168C1.69294 6.44069 2.37309 7.1208 3.21206 7.1208H5.78667C5.29612 7.96905 4.92998 8.89807 4.71216 9.88286H1.51912C0.680156 9.88291 0 10.563 0 11.402C0 12.2411 0.680156 12.9212 1.51912 12.9212H4.52494C4.61569 13.89 4.84809 14.8176 5.20125 15.6832H4.11619C3.27717 15.6832 2.59706 16.3634 2.59706 17.2023C2.59706 18.0414 3.27722 18.7215 4.11619 18.7215H7.16559C8.94366 20.5923 11.4559 21.7588 14.2407 21.7588C19.6306 21.7589 24 17.3895 24 11.9996C24 6.60743 19.6597 2.2548 14.2675 2.24027ZM14.2407 19.4246C10.1465 19.4246 6.81558 16.0938 6.81558 11.9996C6.81558 7.90535 10.1465 4.57446 14.2407 4.57446C18.3349 4.57446 21.6658 7.90535 21.6658 11.9996C21.6658 16.0938 18.3349 19.4246 14.2407 19.4246Z" fill="white"/>
</svg>
