<svg width="71" height="71" viewBox="0 0 71 71" fill="none" xmlns="http://www.w3.org/2000/svg">
<path d="M51.2542 3.66102V31.7288C40.4706 31.7288 31.7288 40.4706 31.7288 51.2542H3.66102C1.63909 51.2542 0 49.6151 0 47.5932V3.66102C0 1.63909 1.63909 0 3.66102 0H47.5932C49.6151 0 51.2542 1.63909 51.2542 3.66102Z" fill="#4A266B"/>
<path opacity="0.5" d="M12.2031 0H39.0506V21.722C39.0503 22.6127 38.6083 23.4453 37.8707 23.9446C37.133 24.4438 36.1958 24.5447 35.3688 24.214L26.6239 20.7165C25.9838 20.4605 25.2699 20.4605 24.6298 20.7165L15.8849 24.2115C15.0583 24.5421 14.1215 24.4415 13.384 23.9428C12.6465 23.4441 12.2042 22.6123 12.2031 21.722V0Z" fill="#A16BD8"/>
<path opacity="0.5" d="M12.2025 47.5947H4.8805C4.20652 47.5947 3.66016 47.0484 3.66016 46.3744V39.0524C3.66016 38.3784 4.20652 37.832 4.8805 37.832C5.55447 37.832 6.10083 38.3784 6.10083 39.0524V45.1541H12.2025C12.8765 45.1541 13.4229 45.7004 13.4229 46.3744C13.4229 47.0484 12.8765 47.5947 12.2025 47.5947Z" fill="#A16BD8"/>
<path d="M51.2539 70.7813C62.0375 70.7813 70.7794 62.0395 70.7794 51.2559C70.7794 40.4723 62.0375 31.7305 51.2539 31.7305C40.4703 31.7305 31.7285 40.4723 31.7285 51.2559C31.7285 62.0395 40.4703 70.7813 51.2539 70.7813Z" fill="#A16BD8"/>
<path d="M61.8798 42.3524L60.1542 40.6268C59.6777 40.1504 58.9052 40.1504 58.4286 40.6268L51.2543 47.8012L44.0799 40.6268C43.6034 40.1504 42.8309 40.1504 42.3543 40.6268L40.6288 42.3524C40.1524 42.8289 40.1524 43.6014 40.6288 44.0779L47.8032 51.2523L40.6288 58.4267C40.1524 58.9032 40.1524 59.6757 40.6288 60.1523L42.3543 61.8778C42.8309 62.3542 43.6034 62.3542 44.0799 61.8778L51.2543 54.7034L58.4286 61.8778C58.9052 62.3542 59.6777 62.3542 60.1542 61.8778L61.8798 60.1523C62.3562 59.6757 62.3562 58.9032 61.8798 58.4267L54.7054 51.2523L61.8798 44.0779C62.3562 43.6014 62.3562 42.8289 61.8798 42.3524Z" fill="#280848"/>
</svg>
