<svg width="32" height="32" viewBox="0 0 32 32" fill="none" xmlns="http://www.w3.org/2000/svg">
<circle cx="16" cy="16" r="15.5" transform="rotate(-180 16 16)" fill="#EFAA5D" stroke="#BE7829"/>
<g clip-path="url(#clip0_21370_32307)">
<path d="M27.7691 16.9041L22.2262 16.9032C21.8406 12.592 18.2548 9.16434 13.848 9.13821C9.19926 9.11062 5.40086 12.8506 5.33358 17.4777L10.3921 17.4785C10.7897 17.4786 11.1102 17.8101 11.0917 18.2123C11.0742 18.5894 10.7495 18.8795 10.3721 18.8795L5.33244 18.8787L5.33217 20.608C5.3321 20.9946 5.64543 21.3085 6.03253 21.3085C6.59954 21.3086 25.0132 21.3115 25.5814 21.3116C27.4008 21.3119 28.8807 19.8312 28.8794 18.0119C28.879 17.3998 28.3812 16.9042 27.7691 16.9041Z" fill="white"/>
</g>
<defs>
<clipPath id="clip0_21370_32307">
<rect width="23.5469" height="23.5469" fill="white" transform="translate(5.33398 3.44922)"/>
</clipPath>
</defs>
</svg>
