<svg width="32" height="32" viewBox="0 0 32 32" fill="none" xmlns="http://www.w3.org/2000/svg">
<circle cx="16" cy="16" r="15.5" fill="#EFAA5D" stroke="#BE7829"/>
<g clip-path="url(#clip0_11795_25422)">
<path d="M24.6549 14.6899C24.9699 14.6235 25.2528 14.4504 25.4562 14.1993C25.6596 13.9483 25.7712 13.6346 25.7724 13.3107V11.1321C25.7724 10.7593 25.6252 10.4018 25.3632 10.1382C25.1013 9.87465 24.746 9.72656 24.3755 9.72656H7.61362C7.24316 9.72656 6.88787 9.87465 6.62592 10.1382C6.36396 10.4018 6.2168 10.7593 6.2168 11.1321V13.3107C6.21796 13.6346 6.32957 13.9483 6.53296 14.1993C6.73635 14.4504 7.01921 14.6235 7.33426 14.6899C7.80604 14.7884 8.22969 15.0474 8.53383 15.4235C8.83798 15.7995 9.00404 16.2695 9.00404 16.7543C9.00404 17.2392 8.83798 17.7092 8.53383 18.0852C8.22969 18.4612 7.80604 18.7203 7.33426 18.8188C7.01921 18.8851 6.73635 19.0583 6.53296 19.3094C6.32957 19.5604 6.21796 19.8741 6.2168 20.198V22.3766C6.2168 22.7493 6.36396 23.1068 6.62592 23.3704C6.88787 23.634 7.24316 23.7821 7.61362 23.7821H24.3755C24.746 23.7821 25.1013 23.634 25.3632 23.3704C25.6252 23.1068 25.7724 22.7493 25.7724 22.3766V20.198C25.7712 19.8741 25.6596 19.5604 25.4562 19.3094C25.2528 19.0583 24.9699 18.8851 24.6549 18.8188C24.1831 18.7203 23.7595 18.4612 23.4553 18.0852C23.1512 17.7092 22.9851 17.2392 22.9851 16.7543C22.9851 16.2695 23.1512 15.7995 23.4553 15.4235C23.7595 15.0474 24.1831 14.7884 24.6549 14.6899ZM7.61362 20.198C8.40303 20.0367 9.11275 19.6057 9.62252 18.9781C10.1323 18.3505 10.4108 17.5649 10.4108 16.7543C10.4108 15.9438 10.1323 15.1582 9.62252 14.5306C9.11275 13.903 8.40303 13.472 7.61362 13.3107V11.1321H12.5025V22.3766H7.61362V20.198Z" fill="white"/>
</g>
<defs>
<clipPath id="clip0_11795_25422">
<rect width="19.5556" height="19.5556" fill="white" transform="translate(6.2168 6.67188)"/>
</clipPath>
</defs>
</svg>
