<svg width="20" height="21" viewBox="0 0 20 21" fill="none" xmlns="http://www.w3.org/2000/svg">
<path opacity="0.2" d="M10 21C15.5228 21 20 16.5228 20 11C20 5.47715 15.5228 1 10 1C4.47715 1 0 5.47715 0 11C0 16.5228 4.47715 21 10 21Z" fill="#280748"/>
<path opacity="0.5" d="M7.73578 9.40703C7.93159 9.1181 8.1806 8.86909 8.46953 8.67328L6.06328 2.86328C4.26382 3.74597 2.80847 5.20132 1.92578 7.00078L7.73578 9.40703Z" fill="#33426F"/>
<path d="M18.4955 13.8655C19.1485 11.9688 19.1485 9.90835 18.4955 8.01172L12.6855 10.418C12.7518 10.7615 12.7518 11.1145 12.6855 11.458L18.4955 13.8655Z" fill="#33426F"/>
<path opacity="0.5" d="M11.5312 8.67328C11.8202 8.86909 12.0692 9.1181 12.265 9.40703L18.075 7.00078C17.1923 5.20132 15.737 3.74597 13.9375 2.86328L11.5312 8.67328Z" fill="#33426F"/>
<path opacity="0.5" d="M8.46953 13.2025C8.1806 13.0067 7.93159 12.7577 7.73578 12.4688L1.92578 14.875C2.80847 16.6745 4.26382 18.1298 6.06328 19.0125L8.46953 13.2025Z" fill="#33426F"/>
<path d="M7.31531 11.458C7.24906 11.1145 7.24906 10.7615 7.31531 10.418L1.50531 8.01172C0.852396 9.90835 0.852396 11.9688 1.50531 13.8655L7.31531 11.458Z" fill="#33426F"/>
<path opacity="0.5" d="M12.265 12.4688C12.0692 12.7577 11.8202 13.0067 11.5312 13.2025L13.9375 19.0125C15.737 18.1298 17.1923 16.6745 18.075 14.875L12.265 12.4688Z" fill="#33426F"/>
<path d="M10.5205 13.6211C10.177 13.6873 9.82397 13.6873 9.48047 13.6211L7.07422 19.4311C8.97085 20.084 11.0313 20.084 12.928 19.4311L10.5205 13.6211Z" fill="#33426F"/>
<path opacity="0.5" d="M10 9.29688C9.67552 9.29688 9.35832 9.3931 9.08852 9.57337C8.81872 9.75364 8.60844 10.0099 8.48426 10.3097C8.36009 10.6094 8.3276 10.9393 8.3909 11.2576C8.4542 11.5758 8.61046 11.8682 8.8399 12.0976C9.06935 12.327 9.36168 12.4833 9.67993 12.5466C9.99818 12.6099 10.3281 12.5774 10.6278 12.4532C10.9276 12.3291 11.1839 12.1188 11.3641 11.849C11.5444 11.5792 11.6406 11.262 11.6406 10.9375C11.6401 10.5025 11.4671 10.0855 11.1595 9.77795C10.852 9.47038 10.435 9.29737 10 9.29688ZM10 11.4844C9.89184 11.4844 9.78611 11.4523 9.69617 11.3922C9.60624 11.3321 9.53615 11.2467 9.49475 11.1468C9.45336 11.0469 9.44253 10.9369 9.46363 10.8308C9.48474 10.7247 9.53682 10.6273 9.6133 10.5508C9.68978 10.4743 9.78723 10.4222 9.89331 10.4011C9.99939 10.38 10.1094 10.3909 10.2093 10.4323C10.3092 10.4736 10.3946 10.5437 10.4547 10.6337C10.5148 10.7236 10.5469 10.8293 10.5469 10.9375C10.5468 11.0825 10.4891 11.2216 10.3866 11.3241C10.2841 11.4266 10.145 11.4843 10 11.4844Z" fill="#33426F"/>
<path d="M8.47971 0.835313L9.49534 3.27281C9.53679 3.37252 9.60685 3.45771 9.69667 3.51765C9.78649 3.57758 9.89205 3.60956 10 3.60956C10.108 3.60956 10.2136 3.57758 10.3034 3.51765C10.3932 3.45771 10.4633 3.37252 10.5047 3.27281L11.5203 0.835313C11.555 0.752222 11.5687 0.661844 11.56 0.572215C11.5514 0.482585 11.5207 0.39648 11.4708 0.321552C11.4208 0.246625 11.3532 0.185198 11.2738 0.14273C11.1944 0.100262 11.1057 0.0780693 11.0157 0.0781251H8.9844C8.89436 0.0780693 8.80569 0.100262 8.72629 0.14273C8.64689 0.185198 8.57921 0.246625 8.52927 0.321552C8.47932 0.39648 8.44867 0.482585 8.44002 0.572215C8.43138 0.661844 8.44501 0.752222 8.47971 0.835313Z" fill="#33426F"/>
<path d="M12.132 2.21094L11.5135 3.69531C11.3889 3.99427 11.1786 4.24966 10.9091 4.4293C10.6397 4.60895 10.323 4.70481 9.99914 4.70481C9.67526 4.70481 9.35863 4.60895 9.08914 4.4293C8.81965 4.24966 8.60936 3.99427 8.48477 3.69531L7.86633 2.21094C7.59674 2.27698 7.33206 2.3549 7.07227 2.44469L9.47852 8.25469C9.82202 8.18844 10.175 8.18844 10.5185 8.25469L12.9248 2.44469C12.6658 2.3551 12.4015 2.27719 12.132 2.21094Z" fill="#33426F"/>
</svg>
