<svg width="36" height="36" viewBox="0 0 36 36" fill="none" xmlns="http://www.w3.org/2000/svg">
<circle cx="18" cy="18" r="17.5" fill="#A16BD8" stroke="#854BBE"/>
<path opacity="0.5" d="M15.4004 8.25C15.4004 9.68386 16.5665 10.8499 18.0003 10.8499C19.4329 10.8499 20.6003 9.68386 20.6003 8.25H15.4004Z" fill="white"/>
<path d="M28.0717 10.9357L23.5218 8.3358C23.4243 8.2799 23.3125 8.25 23.1994 8.25H21.8995C21.8995 10.4001 20.1497 12.1499 17.9996 12.1499C15.8494 12.1499 14.0997 10.4001 14.0997 8.25H12.7997C12.6866 8.25 12.5761 8.2799 12.4773 8.3358L7.92743 10.9357C7.66743 11.0839 7.54264 11.3907 7.62453 11.678L8.9245 16.2279C9.0207 16.5659 9.37169 16.7648 9.70708 16.6803L11.4997 16.2331V27.0995C11.4997 27.4583 11.7909 27.7495 12.1497 27.7495H23.8494C24.2082 27.7495 24.4994 27.4583 24.4994 27.0995V16.2331L26.292 16.6803C26.6274 16.7661 26.9771 16.5659 27.0746 16.2279L28.3746 11.678C28.4565 11.3907 28.3317 11.0839 28.0717 10.9357Z" fill="white"/>
</svg>
