<svg width="56" height="56" viewBox="0 0 56 56" fill="none" xmlns="http://www.w3.org/2000/svg">
<mask id="mask0_16272_2664" style="mask-type:alpha" maskUnits="userSpaceOnUse" x="0" y="0" width="56" height="56">
<rect width="56" height="56" rx="28" fill="#E4007B"/>
</mask>
<g mask="url(#mask0_16272_2664)">
<rect width="56" height="56" fill="#E4007B"/>
<circle cx="-9.05182" cy="2.29779" r="30.2685" fill="#4CCBC9"/>
<circle opacity="0.3" cx="-2.27057" cy="1.33881" r="30.2685" fill="#4CCBC9"/>
<circle opacity="0.2" cx="32.9766" cy="32.9766" r="32.9766" transform="matrix(-1 0 0 1 84.3828 43.4219)" fill="#4CCBC9"/>
<circle cx="18.8846" cy="18.8846" r="18.8846" transform="matrix(-1 0 0 1 73.1484 43.4219)" fill="#4CCBC9"/>
<circle opacity="0.3" cx="18.8846" cy="18.8846" r="18.8846" transform="matrix(-1 0 0 1 68.8828 43.4766)" fill="#4CCBC9"/>
<path d="M48.4231 31.8555H48.3537H48.3423H43.1426L43.1766 31.8216L37.77 31.7861C36.9853 31.7805 36.2997 31.2536 36.0929 30.4958L34.1581 23.3994L29.7586 35.1304C29.5036 35.8103 28.8549 36.2621 28.1283 36.2663C28.1254 36.2663 28.1226 36.2663 28.1198 36.2663C27.3974 36.2663 26.7472 35.8216 26.4866 35.1474L23.3237 26.9589L21.7614 30.83C21.4937 31.4915 20.852 31.925 20.1381 31.925H16.6353C15.6692 31.925 14.8845 31.1417 14.8845 30.1742C14.8845 29.2082 15.6678 28.4235 16.6353 28.4235H18.9554L21.7344 21.5368C22.0022 20.8739 22.6438 20.4419 23.3577 20.4419C23.3619 20.4419 23.3662 20.4419 23.3704 20.4419C24.0886 20.4475 24.7316 20.8909 24.9909 21.5608L28.0943 29.5949L32.7813 17.0962C33.0476 16.3852 33.7445 15.9248 34.5008 15.9616C35.2601 15.9971 35.9088 16.5169 36.1085 17.2492L39.1199 28.2918L46.3451 28.3399C49.3338 23.8739 48.8622 17.7364 44.9273 13.8002C40.4542 9.32703 33.1326 9.32703 28.6594 13.8002L28.1254 14.3342L27.5914 13.8002C23.1183 9.32703 15.7967 9.32703 11.3236 13.8002C6.85047 18.2733 6.85047 25.5949 11.3236 30.068L11.8576 30.602L28.1254 46.8698L39.6411 35.3542H48.4231C49.348 35.3542 50.103 34.5978 50.103 33.6743V33.534C50.103 32.6119 49.348 31.8555 48.4231 31.8555Z" fill="white"/>
</g>
</svg>
