<svg width="18" height="18" viewBox="0 0 18 18" fill="none" xmlns="http://www.w3.org/2000/svg">
<path d="M11.8691 13.2681L12.1434 14.9274" stroke="#EFAA5D" stroke-width="1.5" stroke-linecap="round" stroke-linejoin="round"/>
<path d="M9 13.5V15.75" stroke="#EFAA5D" stroke-width="1.5" stroke-linecap="round" stroke-linejoin="round"/>
<path d="M6.13164 13.2681L5.85742 14.9274" stroke="#EFAA5D" stroke-width="1.5" stroke-linecap="round" stroke-linejoin="round"/>
<path d="M12.4453 4.8374C15.068 5.38584 16.875 6.53896 16.875 7.8749C16.875 9.73818 13.3523 11.2499 9 11.2499C4.64766 11.2499 1.125 9.73818 1.125 7.8749C1.125 6.53896 2.94609 5.37881 5.58281 4.8374" stroke="#EFAA5D" stroke-width="1.5" stroke-linecap="round" stroke-linejoin="round"/>
<path d="M5.06251 7.02404C5.06138 7.27799 5.1473 7.52466 5.30594 7.72297C5.46458 7.92127 5.68638 8.05924 5.93439 8.11388C6.9405 8.33876 7.96912 8.44728 9.00001 8.43732C10.0309 8.44728 11.0595 8.33876 12.0656 8.11388C12.3136 8.05924 12.5354 7.92127 12.6941 7.72297C12.8527 7.52466 12.9386 7.27799 12.9375 7.02404V6.74982C12.9376 6.22857 12.8341 5.7125 12.6331 5.23155C12.4322 4.75059 12.1378 4.31432 11.7669 3.94804C11.396 3.58176 10.9561 3.29276 10.4727 3.0978C9.98931 2.90284 9.472 2.8058 8.95079 2.81232C6.78517 2.84044 5.06251 4.64748 5.06251 6.80607V7.02404Z" stroke="#EFAA5D" stroke-width="1.5" stroke-linecap="round" stroke-linejoin="round"/>
</svg>
