<svg width="29" height="31" viewBox="0 0 29 31" fill="none" xmlns="http://www.w3.org/2000/svg">
<g clip-path="url(#clip0_15390_1707)">
<path d="M24.0539 0.577148H8.58343C7.34957 0.577148 6.33117 1.4349 6.01562 2.58498H20.4137C22.8227 2.58498 24.7826 4.61244 24.7826 7.10449V26.7071C25.9117 26.3774 26.7235 25.3018 26.7235 24.0498V3.33885C26.7235 1.79555 25.512 0.577148 24.0539 0.577148V0.577148Z" fill="white"/>
<path d="M17.7444 18.6029V12.552L12.6788 9.52637L7.61328 12.552V18.6029L12.6788 21.6285L17.7444 18.6029ZM11.9719 19.3602L9.84832 16.0647C9.65806 15.7695 9.65806 15.3849 9.84832 15.0896L11.9719 11.7947C12.293 11.2771 13.0646 11.2773 13.3857 11.7947L15.5093 15.0896C15.6995 15.3849 15.6995 15.7695 15.5093 16.0647L13.3857 19.3602C13.0646 19.8777 12.293 19.8776 11.9719 19.3602Z" fill="white"/>
<path d="M20.4136 4.34277H4.94308C3.45139 4.34277 2.27344 5.59609 2.27344 7.10447V27.8154C2.27344 29.3586 3.48498 30.5771 4.94308 30.5771H20.4136C21.9055 30.5771 23.0832 29.3237 23.0832 27.8154V7.10447C23.0832 5.56117 21.8716 4.34277 20.4136 4.34277ZM5.91356 12.0445C5.91356 11.7304 6.0755 11.4403 6.33837 11.2833L12.2535 7.75023C12.5164 7.5932 12.8403 7.5932 13.1032 7.75023L19.0183 11.2833C19.2812 11.4404 19.4431 11.7304 19.4431 12.0445V19.1102C19.4431 19.4242 19.2812 19.7143 19.0183 19.8713L13.1032 23.4044C12.8403 23.5614 12.5164 23.5614 12.2535 23.4044L6.33837 19.8713C6.0755 19.7143 5.91356 19.4242 5.91356 19.1102V12.0445ZM18.5935 26.8115H6.76317C5.6371 26.7682 5.63795 25.0965 6.76317 25.0537H18.5935C19.7195 25.0969 19.7187 26.7687 18.5935 26.8115Z" fill="white"/>
<path d="M13.7791 15.5767L12.6767 13.8662L11.5742 15.5767L12.6767 17.2876L13.7791 15.5767Z" fill="white"/>
</g>
<defs>
<clipPath id="clip0_15390_1707">
<rect width="29" height="30" fill="white" transform="translate(0 0.577148)"/>
</clipPath>
</defs>
</svg>
