<svg width="20" height="20" viewBox="0 0 20 20" fill="none" xmlns="http://www.w3.org/2000/svg">
    <circle cx="10" cy="10" r="10" fill="#F0489F"/>
    <g clip-path="url(#clip0_8991_16888)">
        <g filter="url(#filter0_d_8991_16888)">
            <path fill-rule="evenodd" clip-rule="evenodd"
                  d="M6.98368 7.5H4.875C4.395 7.5 4 7.895 4 8.375V9.625C4 10.105 4.395 10.5 4.875 10.5H5H9.625V9.75V8.01519C9.74107 8.01917 9.85945 8.02131 9.98017 8.02152C9.98671 8.02187 9.99328 8.02204 9.99987 8.02204C10.1275 8.02204 10.2525 8.01989 10.375 8.01569V9.75V10.5H15H15.125C15.605 10.5 16 10.105 16 9.625V8.375C16 7.895 15.605 7.5 15.125 7.5H13.0174C14.3689 6.94394 14.9999 6.04777 14.9999 5.33704C14.9999 4.71004 14.5194 3.97804 13.1644 3.97754C11.4739 3.97754 10.492 5.17652 9.99994 6.31827C9.50792 5.17652 8.52615 3.97754 6.836 3.97754C5.481 3.97754 5 4.70954 5 5.33654C5 6.04748 5.63133 6.94398 6.98368 7.5ZM13.1644 4.72804C11.3734 4.72804 10.6934 6.43054 10.4679 7.26104C11.8809 7.19504 12.7719 6.83754 13.2849 6.53304C13.9964 6.11054 14.2499 5.63804 14.2499 5.33654C14.2499 4.88754 13.6894 4.72804 13.1644 4.72804ZM9.625 11.25H5V15.125C5 15.605 5.395 16 5.875 16H9.625V11.25ZM15 15.125V11.25H10.375V16H14.125C14.605 16 15 15.605 15 15.125ZM5.75 5.33654C5.75 4.88754 6.311 4.72754 6.836 4.72754C8.6265 4.72754 9.3065 6.43004 9.5315 7.26104C6.8665 7.13854 5.75 5.97504 5.75 5.33654Z"
                  fill="white"/>
        </g>
    </g>
    <defs>
        <filter id="filter0_d_8991_16888" x="3" y="2.97754" width="14" height="14.0225" filterUnits="userSpaceOnUse"
                color-interpolation-filters="sRGB">
            <feFlood flood-opacity="0" result="BackgroundImageFix"/>
            <feColorMatrix in="SourceAlpha" type="matrix" values="0 0 0 0 0 0 0 0 0 0 0 0 0 0 0 0 0 0 127 0"
                           result="hardAlpha"/>
            <feOffset/>
            <feGaussianBlur stdDeviation="0.5"/>
            <feComposite in2="hardAlpha" operator="out"/>
            <feColorMatrix type="matrix" values="0 0 0 0 0 0 0 0 0 0 0 0 0 0 0 0 0 0 0.4 0"/>
            <feBlend mode="normal" in2="BackgroundImageFix" result="effect1_dropShadow_8991_16888"/>
            <feBlend mode="normal" in="SourceGraphic" in2="effect1_dropShadow_8991_16888" result="shape"/>
        </filter>
        <clipPath id="clip0_8991_16888">
            <rect width="12" height="12" fill="white" transform="translate(4 4)"/>
        </clipPath>
    </defs>
</svg>
