<svg width="50" height="48" viewBox="0 0 50 48" fill="none" xmlns="http://www.w3.org/2000/svg">
<path fill-rule="evenodd" clip-rule="evenodd" d="M25.3298 0.480101L25.0872 0H7.94107C6.8696 0 6 0.835932 6 1.86592V31.9694L25.0872 36.7835L25.3298 36.4547V36.7835L44.4171 31.9694V1.86592C44.4171 0.835932 43.5475 0 42.476 0H25.3298V0.480101Z" fill="#7B48AB"/>
<circle cx="24.5" cy="15.5" r="8.5" fill="#4CCBC9"/>
<path d="M23.4033 13.4V11.981H26.0543V20H24.4703V13.4H23.4033Z" fill="#280748"/>
<path d="M25.3294 31.9688L31.6466 41.6969L25.3294 47.8913H8.18326C7.11179 47.8913 6.24219 47.0553 6.24219 46.0253V31.9688H25.3294Z" fill="#5F3288"/>
<path d="M44.4153 31.9688V46.0253C44.4153 47.0553 43.5457 47.8913 42.4743 47.8913H25.3281V31.9688H44.4153Z" fill="#5F3288"/>
<path fill-rule="evenodd" clip-rule="evenodd" d="M25.3293 38.0624L25.3286 38.0615H18.5348C17.4634 38.0615 16.5938 38.8975 16.5938 39.9274C16.5938 40.9574 17.4634 41.7934 18.5348 41.7934H25.3286L25.3293 41.793V41.7934H32.123C33.1945 41.7934 34.0641 40.9574 34.0641 39.9274C34.0641 38.8975 33.1945 38.0615 32.123 38.0615H25.3293V38.0624Z" fill="#3C2158"/>
</svg>
