<svg width="48" height="48" viewBox="0 0 48 48" fill="none" xmlns="http://www.w3.org/2000/svg">
<g opacity="0.4">
<path fill-rule="evenodd" clip-rule="evenodd" d="M15.5961 35.2252L15.5898 35.2236V12.9619C15.5898 12.2002 16.208 11.582 16.9697 11.582H29.1584H29.1584H41.3471C42.1088 11.582 42.727 12.2002 42.727 12.9619V35.2236L42.7207 35.2252H42.727V45.6201C42.727 46.3818 42.1088 47 41.3471 47H29.1584H16.9697C16.208 47 15.5898 46.3818 15.5898 45.6201V35.2252H15.5961Z" fill="#57317B"/>
<path fill-rule="evenodd" clip-rule="evenodd" d="M13.8305 33.4605H13.8242V43.8555C13.8242 44.6171 14.4424 45.2353 15.2041 45.2353H27.3918H27.3928H39.5805C40.3422 45.2353 40.9604 44.6171 40.9604 43.8555V33.4605H40.9541L40.9604 33.4589V11.1972C40.9604 10.4356 40.3422 9.81738 39.5805 9.81738H27.3928H27.3918H15.2041C14.4424 9.81738 13.8242 10.4356 13.8242 11.1972V33.4589L13.8305 33.4605Z" fill="#351C4F"/>
</g>
<g opacity="0.6">
<path fill-rule="evenodd" clip-rule="evenodd" d="M12.9477 32.5758L12.9414 32.5741V10.3125C12.9414 9.55079 13.5596 8.93262 14.3213 8.93262H26.51H26.51H38.6987C39.4604 8.93262 40.0786 9.55079 40.0786 10.3125V32.5741L40.0723 32.5758H40.0786V42.9707C40.0786 43.7324 39.4604 44.3505 38.6987 44.3505H26.51H14.3213C13.5596 44.3505 12.9414 43.7324 12.9414 42.9707V32.5758H12.9477Z" fill="#57317B"/>
<path fill-rule="evenodd" clip-rule="evenodd" d="M11.182 30.8111L11.1758 30.8095V8.54782C11.1758 7.78614 11.794 7.16797 12.5556 7.16797H24.7443H24.7444H36.9331C37.6948 7.16797 38.3129 7.78614 38.3129 8.54782V30.8095L38.3067 30.8111H38.3129V41.206C38.3129 41.9677 37.6948 42.5859 36.9331 42.5859H24.7444H12.5556C11.794 42.5859 11.1758 41.9677 11.1758 41.206V30.8111H11.182Z" fill="#351C4F"/>
</g>
<g opacity="0.8">
<path fill-rule="evenodd" clip-rule="evenodd" d="M10.2992 29.9264L10.293 29.9247V7.66306C10.293 6.90138 10.9111 6.2832 11.6728 6.2832H23.8615H23.8615H36.0503C36.8119 6.2832 37.4301 6.90138 37.4301 7.66306V29.9247L37.4239 29.9264H37.4301V40.3213C37.4301 41.083 36.8119 41.7011 36.0503 41.7011H23.8615H11.6728C10.9111 41.7011 10.293 41.083 10.293 40.3213V29.9264H10.2992Z" fill="#57317B"/>
<path fill-rule="evenodd" clip-rule="evenodd" d="M8.53359 28.1744L8.52734 28.1728V5.91111C8.52734 5.14943 9.14552 4.53125 9.9072 4.53125H22.0959H22.0959H34.2846C35.0463 4.53125 35.6645 5.14943 35.6645 5.91111V28.1728L35.6582 28.1744H35.6645V38.5693C35.6645 39.331 35.0463 39.9492 34.2846 39.9492H22.0959H9.9072C9.14552 39.9492 8.52734 39.331 8.52734 38.5693V28.1744H8.53359Z" fill="#351C4F"/>
</g>
<path fill-rule="evenodd" clip-rule="evenodd" d="M7.65467 27.2857L7.64844 27.2841V5.02243C7.64844 4.26075 8.26661 3.64258 9.02829 3.64258H21.217H21.217H33.4057C34.1674 3.64258 34.7856 4.26075 34.7856 5.02243V27.2841L34.7793 27.2857H34.7856V37.6807C34.7856 38.4423 34.1674 39.0605 33.4057 39.0605H21.217H9.02829C8.26661 39.0605 7.64844 38.4423 7.64844 37.6807V27.2857H7.65467Z" fill="#57317B"/>
<path fill-rule="evenodd" clip-rule="evenodd" d="M5.88905 25.5211L5.88281 25.5195V3.25779C5.88281 2.49611 6.50099 1.87793 7.26267 1.87793H19.4514H19.4514H31.6401C32.4018 1.87793 33.02 2.49611 33.02 3.25779V25.5195L33.0137 25.5211H33.02V35.916C33.02 36.6777 32.4018 37.2959 31.6401 37.2959H19.4514H7.26267C6.50099 37.2959 5.88281 36.6777 5.88281 35.916V25.5211H5.88905Z" fill="#351C4F"/>
<path fill-rule="evenodd" clip-rule="evenodd" d="M18.5686 28.2016L18.5686 28.2015L32.1369 24.6415V2.37986C32.1369 1.61818 31.5188 1 30.7571 1H18.5686H18.5684H6.37986C5.61818 1 5 1.61818 5 2.37986V24.6415L18.5684 28.2015V28.2016L18.5685 28.2015L18.5686 28.2016Z" fill="#7B48AB"/>
<path d="M18.5686 24.6436L23.0593 31.8376L18.5686 36.4183H6.37986C5.61818 36.4183 5 35.8001 5 35.0385V24.6436H18.5686Z" fill="#5F3288"/>
<path d="M32.1389 24.6436V35.0385C32.1389 35.8001 31.5207 36.4183 30.759 36.4183H18.5703V24.6436H32.1389Z" fill="#5F3288"/>
<path fill-rule="evenodd" clip-rule="evenodd" d="M13.7392 31.9091H18.5686H18.5687H23.3981C24.1598 31.9091 24.778 31.291 24.778 30.5293C24.778 29.7676 24.1598 29.1494 23.3981 29.1494H18.5687H18.5686H13.7392C12.9776 29.1494 12.3594 29.7676 12.3594 30.5293C12.3594 31.291 12.9776 31.9091 13.7392 31.9091Z" fill="#3C2158"/>
<circle cx="18.5" cy="12.5" r="8.5" fill="#4CCBC9"/>
<path d="M20.973 10.312H17.409V12.193C17.563 12.0023 17.783 11.8483 18.069 11.731C18.355 11.6063 18.6593 11.544 18.982 11.544C19.5687 11.544 20.049 11.6723 20.423 11.929C20.797 12.1857 21.0683 12.5157 21.237 12.919C21.4057 13.315 21.49 13.7403 21.49 14.195C21.49 15.0383 21.248 15.7167 20.764 16.23C20.2873 16.7433 19.6053 17 18.718 17C17.882 17 17.2147 16.791 16.716 16.373C16.2173 15.955 15.935 15.4087 15.869 14.734H17.365C17.431 15.0273 17.5777 15.262 17.805 15.438C18.0397 15.614 18.3367 15.702 18.696 15.702C19.1287 15.702 19.455 15.5663 19.675 15.295C19.895 15.0237 20.005 14.6643 20.005 14.217C20.005 13.7623 19.8913 13.4177 19.664 13.183C19.444 12.941 19.1177 12.82 18.685 12.82C18.377 12.82 18.1203 12.897 17.915 13.051C17.7097 13.205 17.563 13.4103 17.475 13.667H16.001V8.959H20.973V10.312Z" fill="#280748"/>
</svg>
