<svg width="24" height="24" viewBox="0 0 24 24" fill="none" xmlns="http://www.w3.org/2000/svg">
<path d="M18.75 12C18.7511 13.5309 18.2291 15.0162 17.2706 16.2099L7.79009 6.7294C8.7824 5.935 9.979 5.43718 11.242 5.29333C12.5049 5.14947 13.7828 5.36544 14.9284 5.91633C16.0739 6.46722 17.0405 7.33061 17.7166 8.40698C18.3928 9.48335 18.751 10.7289 18.75 12ZM5.25 12C5.249 13.2711 5.60723 14.5167 6.28338 15.593C6.95954 16.6694 7.92609 17.5328 9.07164 18.0837C10.2172 18.6346 11.4951 18.8505 12.7581 18.7067C14.021 18.5628 15.2176 18.065 16.2099 17.2706L6.72941 7.79008C5.77085 8.98376 5.24889 10.4691 5.25 12ZM22.125 12C22.125 14.0025 21.5312 15.9601 20.4186 17.6251C19.3061 19.2902 17.7248 20.5879 15.8747 21.3543C14.0246 22.1206 11.9888 22.3211 10.0247 21.9305C8.06066 21.5398 6.25656 20.5755 4.84055 19.1595C3.42454 17.7434 2.46023 15.9393 2.06955 13.9753C1.67888 12.0112 1.87939 9.97543 2.64572 8.12533C3.41206 6.27523 4.70981 4.69392 6.37486 3.58137C8.0399 2.46882 9.99747 1.875 12 1.875C14.6844 1.87804 17.258 2.94575 19.1561 4.8439C21.0543 6.74205 22.122 9.31562 22.125 12ZM20.25 12C20.25 10.3683 19.7661 8.77325 18.8596 7.41655C17.9531 6.05984 16.6646 5.00242 15.1571 4.37799C13.6497 3.75357 11.9909 3.59019 10.3905 3.90852C8.79017 4.22685 7.32016 5.01259 6.16637 6.16637C5.01259 7.32015 4.22685 8.79016 3.90853 10.3905C3.5902 11.9908 3.75358 13.6496 4.378 15.1571C5.00242 16.6646 6.05984 17.9531 7.41655 18.8596C8.77326 19.7661 10.3683 20.25 12 20.25C14.1873 20.2475 16.2843 19.3775 17.8309 17.8309C19.3775 16.2843 20.2475 14.1873 20.25 12Z" fill="white"/>
</svg>
