<svg width="14" height="14" viewBox="0 0 14 14" fill="none" xmlns="http://www.w3.org/2000/svg">
<path d="M7 0.5C5.71442 0.5 4.45772 0.881218 3.3888 1.59545C2.31988 2.30968 1.48676 3.32484 0.994786 4.51256C0.502816 5.70028 0.374095 7.00721 0.624899 8.26809C0.875703 9.52896 1.49477 10.6872 2.40381 11.5962C3.31285 12.5052 4.47104 13.1243 5.73192 13.3751C6.99279 13.6259 8.29973 13.4972 9.48744 13.0052C10.6752 12.5132 11.6903 11.6801 12.4046 10.6112C13.1188 9.54229 13.5 8.28558 13.5 7C13.4981 5.27669 12.8126 3.62452 11.594 2.40596C10.3755 1.1874 8.72331 0.50195 7 0.5ZM7.00004 11C6.8517 11 6.7067 10.956 6.58336 10.8736C6.46002 10.7912 6.36389 10.6741 6.30713 10.537C6.25036 10.4 6.23551 10.2492 6.26445 10.1037C6.29339 9.95822 6.36482 9.82458 6.46971 9.71969C6.5746 9.6148 6.70823 9.54337 6.85372 9.51443C6.99921 9.48549 7.15001 9.50035 7.28705 9.55711C7.42409 9.61388 7.54123 9.71001 7.62364 9.83335C7.70605 9.95668 7.75004 10.1017 7.75004 10.25C7.75004 10.4489 7.67102 10.6397 7.53037 10.7804C7.38971 10.921 7.19895 11 7.00004 11ZM7.50001 7.94433V8.00031C7.50001 8.13291 7.44733 8.26009 7.35356 8.35386C7.25979 8.44763 7.13261 8.50031 7.00001 8.50031C6.8674 8.50031 6.74022 8.44763 6.64645 8.35386C6.55268 8.26009 6.50001 8.13291 6.50001 8.00031V7.50031C6.50001 7.3677 6.55269 7.24053 6.64646 7.14676C6.74023 7.05299 6.8674 7.00031 7.00001 7.00031C7.24723 7.00031 7.48891 6.92699 7.69447 6.78964C7.90003 6.65229 8.06025 6.45707 8.15486 6.22866C8.24946 6.00025 8.27422 5.74892 8.22599 5.50644C8.17776 5.26397 8.05871 5.04124 7.88389 4.86642C7.70907 4.69161 7.48635 4.57256 7.24387 4.52432C7.00139 4.47609 6.75006 4.50085 6.52165 4.59546C6.29324 4.69006 6.09802 4.85028 5.96067 5.05584C5.82332 5.2614 5.75001 5.50308 5.75001 5.75031C5.75001 5.88291 5.69733 6.01009 5.60356 6.10386C5.50979 6.19763 5.38261 6.25031 5.25001 6.25031C5.1174 6.25031 4.99022 6.19763 4.89645 6.10386C4.80268 6.01009 4.75001 5.88291 4.75001 5.75031C4.75006 5.32676 4.86966 4.91183 5.09506 4.55324C5.32045 4.19464 5.64248 3.90695 6.02412 3.72325C6.40575 3.53954 6.83149 3.46729 7.25236 3.51479C7.67324 3.5623 8.07216 3.72763 8.40324 3.99178C8.73433 4.25593 8.98413 4.60816 9.12392 5.00798C9.26371 5.40779 9.28782 5.83894 9.19346 6.25184C9.09911 6.66474 8.89012 7.04263 8.59054 7.34204C8.29097 7.64144 7.91296 7.85021 7.50001 7.94433Z" fill="#A16BD8"/>
</svg>
