<svg width="20" height="20" viewBox="0 0 20 20" fill="none" xmlns="http://www.w3.org/2000/svg">
    <circle cx="10" cy="10" r="10" fill="#A16BD8"/>
    <g clip-path="url(#clip0_8991_16886)">
        <g filter="url(#filter0_d_8991_16886)">
            <path fill-rule="evenodd" clip-rule="evenodd" d="M11.826 7.91301C11.826 8.92153 11.0084 9.7391 9.99992 9.7391C8.9914 9.7391 8.17383 8.92153 8.17383 7.91301C8.17383 6.90448 8.9914 6.08691 9.99992 6.08691C11.0084 6.08691 11.826 6.90448 11.826 7.91301ZM14.9563 9.47817C14.9563 10.1985 14.3724 10.7825 13.652 10.7825C12.9316 10.7825 12.3477 10.1985 12.3477 9.47817C12.3477 8.7578 12.9316 8.17383 13.652 8.17383C14.3724 8.17383 14.9563 8.7578 14.9563 9.47817ZM6.38442 10.7825C7.10478 10.7825 7.68876 10.1985 7.68876 9.47817C7.68876 8.7578 7.10478 8.17383 6.38442 8.17383C5.66405 8.17383 5.08008 8.7578 5.08008 9.47817C5.08008 10.1985 5.66405 10.7825 6.38442 10.7825ZM6.60938 13.652C6.60938 11.7821 8.13076 10.2607 10.0007 10.2607C11.8706 10.2607 13.392 11.7821 13.392 13.652C13.392 13.796 13.2751 13.9129 13.1311 13.9129H6.87025C6.72625 13.9129 6.60938 13.796 6.60938 13.652ZM6.83461 11.361C6.67495 11.3271 6.51269 11.3047 6.34782 11.3047C5.05339 11.3047 4 12.3581 4 13.6525C4 13.7965 4.11688 13.9134 4.26088 13.9134H6.13495C6.10573 13.8315 6.08695 13.7443 6.08695 13.6525C6.08695 12.7963 6.36661 12.0059 6.83461 11.361ZM13.166 11.361C13.3257 11.3271 13.4879 11.3047 13.6528 11.3047C14.9472 11.3047 16.0006 12.3581 16.0006 13.6525C16.0006 13.7965 15.8837 13.9134 15.7397 13.9134H13.8657C13.8949 13.8315 13.9137 13.7443 13.9137 13.6525C13.9137 12.7963 13.634 12.0059 13.166 11.361Z" fill="white"/>
        </g>
    </g>
    <defs>
        <filter id="filter0_d_8991_16886" x="3" y="5.08691" width="14" height="9.82642" filterUnits="userSpaceOnUse" color-interpolation-filters="sRGB">
            <feFlood flood-opacity="0" result="BackgroundImageFix"/>
            <feColorMatrix in="SourceAlpha" type="matrix" values="0 0 0 0 0 0 0 0 0 0 0 0 0 0 0 0 0 0 127 0" result="hardAlpha"/>
            <feOffset/>
            <feGaussianBlur stdDeviation="0.5"/>
            <feComposite in2="hardAlpha" operator="out"/>
            <feColorMatrix type="matrix" values="0 0 0 0 0 0 0 0 0 0 0 0 0 0 0 0 0 0 0.4 0"/>
            <feBlend mode="normal" in2="BackgroundImageFix" result="effect1_dropShadow_8991_16886"/>
            <feBlend mode="normal" in="SourceGraphic" in2="effect1_dropShadow_8991_16886" result="shape"/>
        </filter>
        <clipPath id="clip0_8991_16886">
            <rect width="12" height="12" fill="white" transform="translate(4 4)"/>
        </clipPath>
    </defs>
</svg>
