<svg width="20" height="20" viewBox="0 0 20 20" fill="none" xmlns="http://www.w3.org/2000/svg">
    <circle cx="10" cy="10" r="10" fill="#A5D990"/>
    <g clip-path="url(#clip0_8991_16889)">
        <g filter="url(#filter0_d_8991_16889)">
            <path fill-rule="evenodd" clip-rule="evenodd" d="M6.00625 6.25882L7.66573 7.9183C8.21551 7.46441 8.8992 7.16739 9.64769 7.09583V4.75049C8.29151 4.82832 7.02026 5.3549 6.00625 6.25882ZM9.26875 11.1227C9.26875 11.5256 9.59653 11.8534 9.99945 11.8534C10.4024 11.8534 10.7301 11.5256 10.7301 11.1227C10.7301 10.8161 10.36 8.87373 9.99945 7.07783C9.63891 8.87373 9.26875 10.8161 9.26875 11.1227ZM12.8313 8.41622L14.4907 6.75674C15.3947 7.77075 15.9212 9.04199 15.9991 10.3982H13.6537C13.5822 9.64969 13.2851 8.96599 12.8313 8.41622ZM10.3516 4.75049V7.09583C11.1001 7.16739 11.7838 7.46441 12.3335 7.9183L13.993 6.25882C12.979 5.3549 11.7078 4.82832 10.3516 4.75049ZM12.3461 13.5963L12.5951 13.3473C13.2049 12.7375 13.5737 11.951 13.6538 11.1032H15.9989C15.9143 12.5762 15.3007 13.9493 14.2489 15.0011L13.9999 15.2501L12.3461 13.5963ZM4 10.3982H6.34534C6.4169 9.64969 6.71393 8.96599 7.16781 8.41622L5.50833 6.75674C4.60441 7.77075 4.07785 9.04199 4 10.3982ZM5.99896 15.2501L5.74995 15.0011C4.69813 13.9493 4.08455 12.5762 4 11.1032H6.34503C6.42519 11.951 6.79394 12.7375 7.40375 13.3473L7.65278 13.5963L5.99896 15.2501Z" fill="white"/>
        </g>
    </g>
    <defs>
        <filter id="filter0_d_8991_16889" x="3" y="3.75049" width="14" height="12.4996" filterUnits="userSpaceOnUse" color-interpolation-filters="sRGB">
            <feFlood flood-opacity="0" result="BackgroundImageFix"/>
            <feColorMatrix in="SourceAlpha" type="matrix" values="0 0 0 0 0 0 0 0 0 0 0 0 0 0 0 0 0 0 127 0" result="hardAlpha"/>
            <feOffset/>
            <feGaussianBlur stdDeviation="0.5"/>
            <feComposite in2="hardAlpha" operator="out"/>
            <feColorMatrix type="matrix" values="0 0 0 0 0 0 0 0 0 0 0 0 0 0 0 0 0 0 0.4 0"/>
            <feBlend mode="normal" in2="BackgroundImageFix" result="effect1_dropShadow_8991_16889"/>
            <feBlend mode="normal" in="SourceGraphic" in2="effect1_dropShadow_8991_16889" result="shape"/>
        </filter>
        <clipPath id="clip0_8991_16889">
            <rect width="12" height="12" fill="white" transform="translate(4 4)"/>
        </clipPath>
    </defs>
</svg>
