<svg width="24" height="22" viewBox="0 0 24 22" fill="none" xmlns="http://www.w3.org/2000/svg">
<path d="M6.72852 8.77941H1.47852C1.24645 8.77941 1.02389 8.68723 0.859797 8.52313C0.695703 8.35904 0.603516 8.13648 0.603516 7.90441V2.65442C0.606696 2.48109 0.660042 2.31239 0.757099 2.16875C0.854156 2.0251 0.990764 1.91266 1.15039 1.84504C1.3107 1.78014 1.48665 1.76421 1.65601 1.79925C1.82538 1.83429 1.98056 1.91873 2.10195 2.04192L4.10352 4.04348L4.57383 3.57317C6.54595 1.60819 9.21644 0.504883 12.0004 0.504883C14.7843 0.504883 17.4548 1.60819 19.427 3.57317C19.5906 3.7372 19.6825 3.95944 19.6825 4.19113C19.6825 4.42283 19.5906 4.64507 19.427 4.8091C19.3465 4.89145 19.2504 4.95689 19.1442 5.00156C19.0381 5.04623 18.9241 5.06925 18.809 5.06925C18.6938 5.06925 18.5799 5.04623 18.4737 5.00156C18.3676 4.95689 18.2715 4.89145 18.191 4.8091C16.547 3.1714 14.3209 2.25189 12.0004 2.25189C9.67983 2.25189 7.45382 3.1714 5.80977 4.8091L5.33945 5.27942L7.35195 7.29191C7.47249 7.41488 7.55406 7.57068 7.58645 7.7398C7.61885 7.90892 7.60063 8.08383 7.53407 8.24264C7.46751 8.40145 7.35557 8.53709 7.21228 8.63257C7.06899 8.72805 6.90071 8.77913 6.72852 8.77941ZM22.5223 13.22H17.2723C17.1001 13.2203 16.9318 13.2714 16.7885 13.3669C16.6452 13.4624 16.5333 13.598 16.4667 13.7568C16.4002 13.9156 16.3819 14.0905 16.4143 14.2597C16.4467 14.4288 16.5283 14.5846 16.6488 14.7075L18.6613 16.72L18.191 17.1904C16.547 18.8281 14.3209 19.7476 12.0004 19.7476C9.67983 19.7476 7.45382 18.8281 5.80977 17.1904C5.72929 17.108 5.63317 17.0426 5.52704 16.9979C5.42092 16.9532 5.30694 16.9302 5.1918 16.9302C5.07665 16.9302 4.96267 16.9532 4.85655 16.9979C4.75043 17.0426 4.6543 17.108 4.57383 17.1904C4.41019 17.3544 4.31829 17.5766 4.31829 17.8083C4.31829 18.04 4.41019 18.2623 4.57383 18.4263C6.54454 20.3939 9.21555 21.4991 12.0004 21.4991C14.7852 21.4991 17.4562 20.3939 19.427 18.4263L19.8973 17.956L21.8988 19.9575C21.9794 20.0415 22.0762 20.1081 22.1834 20.1532C22.2906 20.1984 22.4059 20.2211 22.5223 20.22C22.6348 20.2195 22.7463 20.1972 22.8504 20.1544C23.01 20.0868 23.1466 19.9744 23.2437 19.8307C23.3407 19.6871 23.3941 19.5184 23.3973 19.345V14.095C23.3973 13.9801 23.3746 13.8664 23.3307 13.7602C23.2867 13.654 23.2222 13.5576 23.141 13.4763C23.0597 13.3951 22.9633 13.3306 22.8571 13.2866C22.751 13.2427 22.6372 13.22 22.5223 13.22Z" fill="#020722"/>
</svg>
