<svg width="140" height="140" viewBox="0 0 140 140" fill="none" xmlns="http://www.w3.org/2000/svg">
<g clip-path="url(#clip0_7443_3760)">
<path d="M101.384 70.1148C103.498 66.7589 105.09 62.9939 106.014 58.9049C110.383 39.5849 98.2619 20.3814 78.9416 16.013C59.6214 11.6445 40.4181 23.7652 36.0497 43.0855C34.931 48.0333 34.896 52.9727 35.7842 57.658L101.384 70.1148Z" fill="#A8E7EF"/>
<path d="M106.012 58.906C105.09 62.9934 103.498 66.7586 101.382 70.1153L91.6055 68.259C93.7192 64.9017 95.3106 61.1365 96.2351 57.0497C100.329 38.9577 89.9592 20.9666 72.7559 15.167C74.8039 15.2676 76.8711 15.5438 78.9424 16.0127C98.2599 20.3823 110.382 39.5855 106.012 58.906Z" fill="#70D9E6"/>
<path d="M139.806 69.7795C142.464 55.8242 113.367 38.5601 74.8171 31.2191C36.2671 23.8781 2.86187 29.2401 0.20438 43.1955C-2.4531 57.1508 26.6435 74.4149 65.1935 81.7559C103.743 89.0969 137.149 83.7349 139.806 69.7795Z" fill="#F0489F"/>
<path d="M24.298 41.4124C27.6576 41.4124 30.3812 38.6889 30.3812 35.3293C30.3812 31.9696 27.6576 29.2461 24.298 29.2461C20.9384 29.2461 18.2148 31.9696 18.2148 35.3293C18.2148 38.6889 20.9384 41.4124 24.298 41.4124Z" fill="#E4007B"/>
<path d="M139.832 69.6919C137.181 83.6528 103.768 89.0354 65.1988 81.7117C43.7884 77.6459 25.2909 70.5204 13.5254 62.5943C24.9819 68.6362 40.2947 73.873 57.4873 77.1379C96.054 84.4614 129.469 79.082 132.12 65.1181C133.301 58.9021 128.185 52.035 118.738 45.6816C133.001 53.1941 141.302 61.9498 139.832 69.6919Z" fill="#E4007B"/>
<path d="M108.885 76.5254C110.262 69.298 92.9308 59.9263 70.1758 55.5931C47.4208 51.2599 27.8585 53.6061 26.4822 60.8335C25.1059 68.061 42.4368 77.4327 65.1918 81.7658C87.9468 86.099 107.509 83.7528 108.885 76.5254Z" fill="#D4F2F6"/>
<path d="M95.6153 134.849L18.154 120.14C16.4532 119.817 15.4437 118.051 16.028 116.421L37.6206 54.2229C45.7291 52.7814 57.4492 53.1114 70.1709 55.5272C82.8925 57.9431 93.9178 61.932 100.933 66.2454L98.9562 132.169C98.9028 133.899 97.3158 135.172 95.6153 134.849Z" fill="url(#paint0_linear_7443_3760)"/>
<path d="M100.934 66.2445C93.9182 61.931 82.8927 57.9418 70.1712 55.5263C57.4496 53.1104 45.7295 52.7804 37.621 54.222L34.8945 61.8186C40.0576 60.7197 46.9168 60.4104 54.6777 60.9846L46.4268 94.026C46.144 95.158 46.8325 96.3048 47.9646 96.5876C48.1366 96.6305 48.3088 96.651 48.4781 96.651C49.425 96.651 50.2866 96.0098 50.5261 95.0495L58.9343 61.3781C62.1133 61.7308 65.4107 62.2241 68.7778 62.8634C72.1457 63.503 75.395 64.253 78.4827 65.0903L76.4122 80.8545C76.2604 82.0114 77.075 83.0724 78.2319 83.2244C78.3252 83.2367 78.4178 83.2427 78.5097 83.2427C79.554 83.2427 80.4621 82.4683 80.6018 81.4049L82.5878 66.2847C90.019 68.5955 96.2873 71.3971 100.686 74.3117L100.934 66.2445Z" fill="url(#paint1_linear_7443_3760)"/>
<path d="M95.6165 132.848L88.3652 131.471L90.5388 61.2246C94.563 62.7865 98.0829 64.4884 100.935 66.2441L98.9574 130.167C98.9041 131.898 97.317 133.171 95.6165 132.848Z" fill="url(#paint2_linear_7443_3760)"/>
<path d="M21.4031 49.9466C21.8381 47.6625 20.0574 45.4047 17.4258 44.9036C14.7943 44.4025 12.3084 45.8478 11.8735 48.1319C11.4385 50.416 13.2192 52.6738 15.8507 53.1749C18.4823 53.676 20.9682 52.2307 21.4031 49.9466Z" fill="#D4F2F6"/>
<path d="M47.0222 41.8128C47.4572 39.5287 45.6765 37.2709 43.045 36.7698C40.4135 36.2687 37.9276 37.714 37.4926 39.9981C37.0577 42.2822 38.8384 44.54 41.4699 45.0411C44.1014 45.5423 46.5873 44.0969 47.0222 41.8128Z" fill="#D4F2F6"/>
<path d="M77.1687 44.7923C77.6037 42.5082 75.823 40.2504 73.1915 39.7493C70.5599 39.2482 68.0741 40.6935 67.6391 42.9776C67.2042 45.2617 68.9848 47.5195 71.6164 48.0206C74.2479 48.5217 76.7338 47.0764 77.1687 44.7923Z" fill="#D4F2F6"/>
<path d="M127.141 70.0745C127.576 67.7905 125.796 65.5326 123.164 65.0315C120.533 64.5304 118.047 65.9758 117.612 68.2598C117.177 70.5439 118.957 72.8017 121.589 73.3029C124.221 73.804 126.706 72.3586 127.141 70.0745Z" fill="#D4F2F6"/>
<path d="M106.302 53.097C106.736 50.8129 104.956 48.5551 102.324 48.054C99.6928 47.5528 97.2069 48.9982 96.7719 51.2823C96.337 53.5664 98.1177 55.8242 100.749 56.3253C103.381 56.8264 105.867 55.3811 106.302 53.097Z" fill="#D4F2F6"/>
<path d="M46.4709 3.24382C45.6459 2.41886 44.3086 2.41859 43.4828 3.24382L42.3573 4.36929L41.2318 3.24382C40.4066 2.41886 39.0692 2.41886 38.2437 3.24382C37.4188 4.06906 37.4188 5.40644 38.2437 6.23167L39.3692 7.35714L38.2437 8.48261C37.4188 9.30757 37.4188 10.6452 38.2437 11.4705C38.6563 11.8831 39.1969 12.0893 39.7378 12.0893C40.2784 12.0893 40.8192 11.8828 41.2318 11.4705L42.3573 10.345L43.4828 11.4705C43.8954 11.8831 44.4363 12.0893 44.9768 12.0893C45.5174 12.0893 46.0583 11.8828 46.4709 11.4705C47.2959 10.6452 47.2959 9.30785 46.4709 8.48261L45.3454 7.35714L46.4709 6.23167C47.2959 5.40644 47.2959 4.06878 46.4709 3.24382Z" fill="#A16BD8"/>
<path d="M98.4988 9.98511C98.8421 10.3284 99.2922 10.5 99.742 10.5C100.192 10.5 100.642 10.3282 100.985 9.98511C101.672 9.29867 101.672 8.18563 100.985 7.49896L100.049 6.56247L100.985 5.62598C101.672 4.93954 101.672 3.8265 100.985 3.13983C100.298 2.45339 99.1857 2.45339 98.4988 3.13983L97.5625 4.07609L96.6262 3.13983C95.9396 2.45339 94.8267 2.45339 94.1398 3.13983C93.4534 3.82627 93.4534 4.93932 94.1398 5.62598L95.0763 6.56247L94.1398 7.49896C93.4534 8.1854 93.4534 9.29845 94.1398 9.98511C94.4832 10.3284 94.9332 10.5 95.383 10.5C95.8328 10.5 96.2829 10.3282 96.6262 9.98511L97.5625 9.04885L98.4988 9.98511Z" fill="#F0489F"/>
<path d="M111.907 100.625L112.532 100.001C112.989 99.5429 112.989 98.801 112.532 98.3433C112.074 97.8857 111.332 97.8857 110.874 98.3433L110.25 98.9674L109.626 98.3433C109.168 97.8857 108.426 97.8855 107.968 98.3433C107.511 98.8009 107.511 99.5429 107.968 100.001L108.593 100.625L107.968 101.249C107.511 101.707 107.511 102.449 107.968 102.907C108.197 103.136 108.497 103.25 108.797 103.25C109.097 103.25 109.397 103.135 109.626 102.907L110.25 102.283L110.874 102.907C111.103 103.136 111.403 103.25 111.703 103.25C112.003 103.25 112.303 103.135 112.532 102.907C112.989 102.449 112.989 101.707 112.532 101.249L111.907 100.625Z" fill="#A8E7EF"/>
<path d="M120.044 36.4798C123.404 36.4798 126.127 33.7563 126.127 30.3966C126.127 27.037 123.404 24.3135 120.044 24.3135C116.684 24.3135 113.961 27.037 113.961 30.3966C113.961 33.7563 116.684 36.4798 120.044 36.4798Z" fill="#CEA6F5"/>
<path d="M126.127 30.3958C126.127 33.7566 123.403 36.4809 120.045 36.4809C118.919 36.4809 117.862 36.1752 116.959 35.6387C119.347 35.0883 121.126 32.9505 121.126 30.3958C121.126 27.8438 119.35 25.7034 116.962 25.1529C117.865 24.6192 118.919 24.3135 120.045 24.3135C123.403 24.3132 126.127 27.0375 126.127 30.3958Z" fill="#A169D9"/>
<path d="M24.6691 36.4798C28.0287 36.4798 30.7523 33.7563 30.7523 30.3966C30.7523 27.037 28.0287 24.3135 24.6691 24.3135C21.3095 24.3135 18.5859 27.037 18.5859 30.3966C18.5859 33.7563 21.3095 36.4798 24.6691 36.4798Z" fill="#60ECEA"/>
<path d="M30.7521 30.3958C30.7521 33.7566 28.0278 36.4809 24.6697 36.4809C23.544 36.4809 22.4874 36.1752 21.584 35.6387C23.9719 35.0883 25.7512 32.9505 25.7512 30.3958C25.7512 27.8438 23.9749 25.7034 21.587 25.1529C22.4904 24.6192 23.544 24.3135 24.67 24.3135C28.0278 24.3132 30.7521 27.0375 30.7521 30.3958Z" fill="#4CCBC9"/>
</g>
<defs>
<linearGradient id="paint0_linear_7443_3760" x1="77.0002" y1="49.0002" x2="58.6252" y2="124.688" gradientUnits="userSpaceOnUse">
<stop stop-color="#D2F0A2"/>
<stop offset="0.529769" stop-color="#D2F0A2" stop-opacity="0.21"/>
<stop offset="0.987123" stop-color="#D2F0A2" stop-opacity="0"/>
</linearGradient>
<linearGradient id="paint1_linear_7443_3760" x1="67.129" y1="50.2064" x2="51.6255" y2="103.25" gradientUnits="userSpaceOnUse">
<stop stop-color="#BCEA73"/>
<stop offset="1" stop-color="#BCEA73" stop-opacity="0"/>
</linearGradient>
<linearGradient id="paint2_linear_7443_3760" x1="94.5005" y1="55.9994" x2="94.5005" y2="124.249" gradientUnits="userSpaceOnUse">
<stop stop-color="#BCEA73"/>
<stop offset="1" stop-color="#BCEA73" stop-opacity="0"/>
</linearGradient>
<clipPath id="clip0_7443_3760">
<rect width="140" height="140" fill="white"/>
</clipPath>
</defs>
</svg>
