<svg width="56" height="56" viewBox="0 0 56 56" fill="none" xmlns="http://www.w3.org/2000/svg">
<path d="M28 54.9062C42.8599 54.9062 54.9062 42.8599 54.9062 28C54.9062 13.1401 42.8599 1.09375 28 1.09375C13.1401 1.09375 1.09375 13.1401 1.09375 28C1.09375 42.8599 13.1401 54.9062 28 54.9062Z" fill="#FFE352"/>
<path d="M28 49.875C40.0812 49.875 49.875 40.0812 49.875 28C49.875 15.9188 40.0812 6.125 28 6.125C15.9188 6.125 6.125 15.9188 6.125 28C6.125 40.0812 15.9188 49.875 28 49.875Z" fill="#FFB236"/>
<path d="M28 9.38184L33.4754 20.4762L45.7188 22.2553L36.8594 30.8911L38.9507 43.0849L28 37.3277L17.0492 43.0849L19.1406 30.8911L10.2812 22.2553L22.5246 20.4762L28 9.38184Z" fill="#FFE352"/>
</svg>
