<svg width="56" height="56" viewBox="0 0 56 56" fill="none" xmlns="http://www.w3.org/2000/svg">
<path d="M28.6562 55.5625C43.5162 55.5625 55.5625 43.5162 55.5625 28.6562C55.5625 13.7963 43.5162 1.75 28.6562 1.75C13.7963 1.75 1.75 13.7963 1.75 28.6562C1.75 43.5162 13.7963 55.5625 28.6562 55.5625Z" fill="#D4A2F0"/>
<path d="M28.875 50.75C40.9562 50.75 50.75 40.9562 50.75 28.875C50.75 16.7938 40.9562 7 28.875 7C16.7938 7 7 16.7938 7 28.875C7 40.9562 16.7938 50.75 28.875 50.75Z" fill="#EBD5F6"/>
<path d="M28.875 50.75C40.9562 50.75 50.75 40.9562 50.75 28.875C50.75 16.7938 40.9562 7 28.875 7C16.7938 7 7 16.7938 7 28.875C7 40.9562 16.7938 50.75 28.875 50.75Z" fill="#EBD5F6"/>
<path d="M20.3818 18.5841H15.8438V17.0893C15.8438 15.8362 16.8597 14.8203 18.1128 14.8203C19.3659 14.8203 20.3818 15.8362 20.3818 17.0893V18.5841Z" fill="#2ED1E2"/>
<path d="M28.8796 12.7939H25.0055C24.2097 12.7939 23.5015 13.299 23.2421 14.0513L21.6797 18.5843H28.8796L29.7149 15.6891L28.8796 12.7939Z" fill="#6B514D"/>
<path d="M28.8828 12.7939H32.7568C33.5527 12.7939 34.2609 13.299 34.5202 14.0513L36.0827 18.5843H28.8828V12.7939Z" fill="#443432"/>
<path d="M28.8766 40.9844H15.5188C13.5797 40.9844 12.0078 39.4125 12.0078 37.4734V21.7062C12.0078 19.7672 13.5797 18.1953 15.5188 18.1953H28.8766L38.8781 25.2873L38.8284 35.9388L28.8766 40.9844Z" fill="#EF5264"/>
<path d="M42.2329 18.1953H28.875V40.9844H42.2329C44.1719 40.9844 45.7438 39.4125 45.7438 37.4735V21.7063C45.7438 19.7672 44.1719 18.1953 42.2329 18.1953Z" fill="#C9355F"/>
<path d="M20.4766 29.5903C20.4766 24.9511 24.2373 21.1904 28.8764 21.1904C28.8764 21.1904 34.9447 24.9511 34.9447 29.5903C34.9447 34.2294 28.8764 37.9901 28.8764 37.9901C24.2373 37.9901 20.4766 34.2293 20.4766 29.5903Z" fill="#F4EAFA"/>
<path d="M28.875 21.1885V37.9881C33.5141 37.9881 37.2748 34.2274 37.2748 29.5883C37.2748 24.9493 33.5141 21.1885 28.875 21.1885Z" fill="#EBD5F6"/>
<path d="M23.2969 29.5892C23.2969 26.5061 25.7962 24.0068 28.8793 24.0068C28.8793 24.0068 32.5151 26.5061 32.5151 29.5892C32.5151 32.6723 28.8793 35.1716 28.8793 35.1716C25.7962 35.1716 23.2969 32.6723 23.2969 29.5892Z" fill="#A6E7F0"/>
<path d="M28.875 24.0068V35.1716C31.9581 35.1716 34.4574 32.6723 34.4574 29.5892C34.4574 26.5062 31.9581 24.0068 28.875 24.0068Z" fill="#A6E7F0"/>
<path d="M28.864 27.5706C28.864 27.5706 27.8477 26.0791 26.2473 26.617C24.647 27.1548 23.9151 30.5821 28.864 33.0773L30.7725 30.0589L28.864 27.5706Z" fill="#EF5264"/>
<path d="M28.8672 27.5706C28.8672 27.5706 29.8834 26.0791 31.4838 26.617C33.0842 27.1548 33.8161 30.5821 28.8672 33.0773V27.5706Z" fill="#C9355F"/>
<path d="M40.7384 25.0159H39.7887C38.7318 25.0159 37.875 24.1591 37.875 23.1022C37.875 22.0453 38.7318 21.1885 39.7887 21.1885H40.7384C41.7953 21.1885 42.6521 22.0453 42.6521 23.1022C42.652 24.1591 41.7952 25.0159 40.7384 25.0159Z" fill="#EBD5F6"/>
</svg>
