<svg width="24" height="24" viewBox="0 0 24 24" fill="none" xmlns="http://www.w3.org/2000/svg">
<path d="M21.7313 12.6375C21.736 12.6002 21.736 12.5624 21.7313 12.525C21.7406 12.3469 21.75 12.1781 21.75 12C21.7533 9.77842 20.9919 7.62337 19.5938 5.89689C19.5612 5.83546 19.5166 5.78125 19.4625 5.73752C18.4289 4.50199 17.105 3.54208 15.6094 2.94377L15.5063 2.90627C13.2507 2.03116 10.7494 2.03116 8.49376 2.90627L8.39064 2.94377C6.89501 3.54208 5.57112 4.50199 4.53751 5.73752C4.48346 5.78125 4.43882 5.83546 4.40626 5.89689C3.00812 7.62337 2.24673 9.77842 2.25001 12C2.25001 12.1781 2.25939 12.3469 2.26876 12.525C2.26405 12.5624 2.26405 12.6002 2.26876 12.6375C2.37688 14.2484 2.88258 15.8074 3.74064 17.175C3.76947 17.2315 3.80403 17.2849 3.84376 17.3344C5.16148 19.3456 7.17404 20.8008 9.49689 21.4219H9.52501C11.1476 21.8469 12.8524 21.8469 14.475 21.4219H14.5031C16.826 20.8008 18.8385 19.3456 20.1563 17.3344C20.196 17.2849 20.2305 17.2315 20.2594 17.175C21.1174 15.8074 21.6231 14.2484 21.7313 12.6375ZM6.42189 10.9781L7.65939 11.3813L8.85001 15.0563L8.09064 16.1063H4.84689C4.27396 15.1205 3.91612 14.0246 3.79689 12.8906L6.42189 10.9781ZM17.5781 10.9781L20.2031 12.8906C20.0839 14.0246 19.7261 15.1205 19.1531 16.1063H15.9094L15.15 15.0563L16.3406 11.3813L17.5781 10.9781ZM18.1125 6.46877L17.1094 9.55314L15.8719 9.95627L12.75 7.67814V6.38439L15.375 4.47189C16.4172 4.93854 17.3499 5.61885 18.1125 6.46877ZM8.62501 4.47189L11.25 6.38439V7.67814L8.12814 9.95627L6.89064 9.55314L5.88751 6.46877C6.65016 5.61885 7.58278 4.93854 8.62501 4.47189ZM10.3125 20.0719L9.30939 16.9875L10.0688 15.9375H13.9313L14.6906 16.9875L13.6875 20.0719C12.575 20.3094 11.425 20.3094 10.3125 20.0719Z" fill="white"/>
</svg>
