<svg width="20" height="20" viewBox="0 0 20 20" fill="none" xmlns="http://www.w3.org/2000/svg">
<path d="M10 17.5C14.1421 17.5 17.5 14.1421 17.5 10C17.5 5.85786 14.1421 2.5 10 2.5C5.85786 2.5 2.5 5.85786 2.5 10C2.5 14.1421 5.85786 17.5 10 17.5Z" stroke="#4CCBC9" stroke-width="1.5" stroke-linecap="round" stroke-linejoin="round"/>
<path d="M10 6.71875L6.88281 8.98438L8.07031 12.6562H11.9297L13.1172 8.98438L10 6.71875Z" stroke="#4CCBC9" stroke-width="1.5" stroke-linecap="round" stroke-linejoin="round"/>
<path d="M10 5V6.71875" stroke="#4CCBC9" stroke-width="1.5" stroke-linecap="round" stroke-linejoin="round"/>
<path d="M12.7344 3.01562L10 5L7.26562 3.01562" stroke="#4CCBC9" stroke-width="1.5" stroke-linecap="round" stroke-linejoin="round"/>
<path d="M5.24219 8.45312L6.88281 8.98438" stroke="#4CCBC9" stroke-width="1.5" stroke-linecap="round" stroke-linejoin="round"/>
<path d="M4.20313 5.24219L5.24219 8.45312L2.50781 10.4453" stroke="#4CCBC9" stroke-width="1.5" stroke-linecap="round" stroke-linejoin="round"/>
<path d="M7.0625 14.0469L8.07031 12.6562" stroke="#4CCBC9" stroke-width="1.5" stroke-linecap="round" stroke-linejoin="round"/>
<path d="M3.67969 14.0469H7.0625L8.10938 17.2578" stroke="#4CCBC9" stroke-width="1.5" stroke-linecap="round" stroke-linejoin="round"/>
<path d="M12.9375 14.0469L11.9297 12.6562" stroke="#4CCBC9" stroke-width="1.5" stroke-linecap="round" stroke-linejoin="round"/>
<path d="M11.8906 17.2578L12.9375 14.0469H16.3203" stroke="#4CCBC9" stroke-width="1.5" stroke-linecap="round" stroke-linejoin="round"/>
<path d="M14.7578 8.45312L13.1172 8.98438" stroke="#4CCBC9" stroke-width="1.5" stroke-linecap="round" stroke-linejoin="round"/>
<path d="M17.4922 10.4453L14.7578 8.45312L15.7969 5.24219" stroke="#4CCBC9" stroke-width="1.5" stroke-linecap="round" stroke-linejoin="round"/>
</svg>
