<svg width="56" height="56" viewBox="0 0 56 56" fill="none" xmlns="http://www.w3.org/2000/svg">
<path d="M28 54.9062C42.8599 54.9062 54.9062 42.8599 54.9062 28C54.9062 13.1401 42.8599 1.09375 28 1.09375C13.1401 1.09375 1.09375 13.1401 1.09375 28C1.09375 42.8599 13.1401 54.9062 28 54.9062Z" fill="#FC9ECF"/>
<g clip-path="url(#clip0_15749_2146)">
<path d="M49.8749 28C49.8749 40.0813 40.0813 49.8749 28 49.8749C15.9189 49.8749 6.125 40.0813 6.125 28C6.125 15.9186 15.9189 6.125 28 6.125C40.0813 6.125 49.8749 15.9186 49.8749 28Z" fill="#F0489F"/>
<path d="M33.7029 21.3717L33.4215 21.6528L25.8058 14.0371L21.8007 18.0425L21.6779 17.9197L13.884 25.7136L27.2404 39.07L26.901 39.4091L22.2013 34.7094L15.383 35.8029L13.875 36.3707L27.3696 49.8653C27.5799 49.8713 27.7908 49.875 28.0025 49.875C37.25 49.875 45.1574 44.1369 48.358 36.0266L33.7029 21.3717Z" fill="#E4007B"/>
<path d="M18.9219 38.0371H27.2512V39.703H18.9219V38.0371Z" fill="#C5D3DD"/>
<path d="M13.8672 34.7051H22.1968V36.371H13.8672V34.7051Z" fill="#C5D3DD"/>
<path d="M42.2984 36.3714V39.7032H31.1149L28.0828 37.2709L13.8672 25.7099L15.733 22.9111L18.4317 22.9612L28.0828 30.8739L32.8806 34.7054H40.4826L42.2984 36.3714Z" fill="white"/>
<path d="M42.3015 36.3705V39.7023H31.118L28.0859 37.27V30.873L32.8838 34.7046H40.4857L42.3015 36.3705Z" fill="#C5D3DD"/>
<path d="M42.3006 35.5378V36.3706H32.283L28.085 33.0057L21.0662 27.2082L20.0498 25.0259C20.4997 23.3436 20.1499 21.5609 19.1172 20.1783L19.3505 17.8959L22.882 13.065L23.2818 13.0483C25.0642 12.9816 26.5803 14.2977 26.7802 16.0471C26.9301 17.3628 27.2522 18.5291 28.085 19.4286C29.1845 20.6279 30.767 21.3779 32.5163 21.3779H33.6989C33.6492 22.5272 33.5991 23.1604 33.8491 24.2765L33.1492 25.4925L34.3822 25.8757C34.5321 26.1921 34.6819 26.4752 34.8652 26.7586L34.8151 28.0747L35.9146 28.058C36.0812 28.2412 36.2644 28.4078 36.4647 28.5744L36.6146 29.7903L37.8639 29.4906C37.8806 29.5073 37.914 29.5073 37.9303 29.524L38.8132 29.9903C40.9291 31.023 42.3006 33.1556 42.3006 35.5378Z" fill="#4DFFF6"/>
<path d="M42.3015 35.5379V36.3707H32.284L28.0859 33.0058V19.4287C29.1854 20.628 30.7679 21.378 32.5173 21.378H33.6999C33.6501 22.5272 33.6001 23.1604 33.8501 24.2766L33.1501 25.4926L34.3831 25.8758C34.533 26.1922 34.6829 26.4753 34.8661 26.7586L34.8161 28.0748L35.9155 28.0581C36.0821 28.2413 36.2653 28.4079 36.4656 28.5744L36.6155 29.7904L37.8648 29.4907C37.8815 29.5074 37.9149 29.5074 37.9313 29.5241L38.8141 29.9903C40.93 31.0231 42.3015 33.1556 42.3015 35.5379Z" fill="#4CCBC9"/>
<path d="M21.0669 27.2166L15.6953 22.9134L19.3516 17.8906L20.0389 18.656C21.8657 20.6904 22.4131 23.5546 21.4665 26.1298L21.0669 27.2166Z" fill="#4CCBC9"/>
<path d="M33.8525 24.2773C33.969 24.8434 34.1522 25.3768 34.3855 25.8765L30.8037 27.2757L30.1875 25.71L33.8525 24.2773Z" fill="#E5E9EC"/>
<path d="M34.8716 26.7598C35.1713 27.2261 35.5215 27.676 35.921 28.0592L33.5722 30.3913L32.4062 29.2251L34.8716 26.7598Z" fill="#E5E9EC"/>
<path d="M36.4685 28.5752C36.885 28.925 37.3513 29.2414 37.868 29.4914L36.3353 32.5733L34.8359 31.8403L36.4685 28.5752Z" fill="#E5E9EC"/>
</g>
<defs>
<clipPath id="clip0_15749_2146">
<rect width="43.75" height="43.75" fill="white" transform="translate(6.125 6.125)"/>
</clipPath>
</defs>
</svg>
