<svg width="12" height="12" viewBox="0 0 12 12" fill="none" xmlns="http://www.w3.org/2000/svg">
<g clip-path="url(#clip0_16654_3205)">
<g filter="url(#filter0_d_16654_3205)">
<path fill-rule="evenodd" clip-rule="evenodd" d="M2.00781 2.25833L3.6673 3.91781C4.21707 3.46393 4.90076 3.1669 5.64926 3.09534V0.75C4.29307 0.827831 3.02183 1.35441 2.00781 2.25833ZM5.26953 7.12205C5.26953 7.52496 5.59731 7.85275 6.00023 7.85275C6.40314 7.85275 6.73093 7.52496 6.73093 7.12205C6.73093 6.81544 6.36076 4.87304 6.00023 3.07715C5.63969 4.87304 5.26953 6.81547 5.26953 7.12205ZM8.83203 4.41534L10.4915 2.75586C11.3954 3.76987 11.922 5.04112 11.9998 6.3973H9.65451C9.58294 5.64881 9.28592 4.96512 8.83203 4.41534ZM6.35156 0.75V3.09534C7.10006 3.1669 7.78375 3.46393 8.33352 3.91781L9.99301 2.25833C8.97899 1.35441 7.70775 0.827831 6.35156 0.75ZM8.34766 9.59563L8.59669 9.34661C9.2065 8.73683 9.57525 7.9503 9.65539 7.10254H12.0004C11.9159 8.57556 11.3023 9.9486 10.2505 11.0004L10.0015 11.2494L8.34766 9.59563ZM0 6.3973H2.34534C2.4169 5.64881 2.71393 4.96512 3.16781 4.41534L1.50833 2.75586C0.604407 3.76987 0.0778547 5.04112 0 6.3973ZM1.99896 11.2496L1.74995 11.0006C0.698133 9.9488 0.0845461 8.57575 0 7.10273H2.34503C2.42519 7.9505 2.79394 8.73703 3.40375 9.34681L3.65278 9.59582L1.99896 11.2496Z" fill="white"/>
</g>
</g>
<defs>
<filter id="filter0_d_16654_3205" x="-1" y="-0.25" width="14" height="12.5" filterUnits="userSpaceOnUse" color-interpolation-filters="sRGB">
<feFlood flood-opacity="0" result="BackgroundImageFix"/>
<feColorMatrix in="SourceAlpha" type="matrix" values="0 0 0 0 0 0 0 0 0 0 0 0 0 0 0 0 0 0 127 0" result="hardAlpha"/>
<feOffset/>
<feGaussianBlur stdDeviation="0.5"/>
<feComposite in2="hardAlpha" operator="out"/>
<feColorMatrix type="matrix" values="0 0 0 0 0 0 0 0 0 0 0 0 0 0 0 0 0 0 0.4 0"/>
<feBlend mode="normal" in2="BackgroundImageFix" result="effect1_dropShadow_16654_3205"/>
<feBlend mode="normal" in="SourceGraphic" in2="effect1_dropShadow_16654_3205" result="shape"/>
</filter>
<clipPath id="clip0_16654_3205">
<rect width="12" height="12" fill="white"/>
</clipPath>
</defs>
</svg>
