<svg width="12" height="12" viewBox="0 0 12 12" fill="none" xmlns="http://www.w3.org/2000/svg">
<g clip-path="url(#clip0_16654_3156)">
<g filter="url(#filter0_d_16654_3156)">
<path fill-rule="evenodd" clip-rule="evenodd" d="M7.82406 3.91301C7.82406 4.92153 7.00649 5.7391 5.99797 5.7391C4.98944 5.7391 4.17188 4.92153 4.17188 3.91301C4.17188 2.90448 4.98944 2.08691 5.99797 2.08691C7.00649 2.08691 7.82406 2.90448 7.82406 3.91301ZM10.9563 5.47817C10.9563 6.19853 10.3724 6.78251 9.65199 6.78251C8.93163 6.78251 8.34766 6.19853 8.34766 5.47817C8.34766 4.7578 8.93163 4.17383 9.65199 4.17383C10.3724 4.17383 10.9563 4.7578 10.9563 5.47817ZM2.38246 6.78251C3.10283 6.78251 3.6868 6.19853 3.6868 5.47817C3.6868 4.7578 3.10283 4.17383 2.38246 4.17383C1.6621 4.17383 1.07812 4.7578 1.07812 5.47817C1.07812 6.19853 1.6621 6.78251 2.38246 6.78251ZM2.60938 9.65205C2.60938 7.78213 4.13076 6.26074 6.00068 6.26074C7.8706 6.26074 9.39199 7.78213 9.39199 9.65205C9.39199 9.79605 9.27511 9.91293 9.13111 9.91293H2.87025C2.72625 9.91293 2.60938 9.79605 2.60938 9.65205ZM2.83461 7.36104C2.67495 7.32711 2.51269 7.30469 2.34782 7.30469C1.05339 7.30469 0 8.35808 0 9.65251C0 9.79651 0.116878 9.91339 0.260878 9.91339H2.13495C2.10573 9.83149 2.08695 9.74435 2.08695 9.65251C2.08695 8.79634 2.36661 8.0059 2.83461 7.36104ZM9.16406 7.36104C9.32371 7.32711 9.48598 7.30469 9.65084 7.30469C10.9453 7.30469 11.9987 8.35808 11.9987 9.65251C11.9987 9.79651 11.8818 9.91339 11.7378 9.91339H9.86371C9.89294 9.83146 9.91172 9.74435 9.91172 9.65251C9.91172 8.79634 9.63206 8.0059 9.16406 7.36104Z" fill="white"/>
</g>
</g>
<defs>
<filter id="filter0_d_16654_3156" x="-1" y="1.08691" width="14" height="9.82617" filterUnits="userSpaceOnUse" color-interpolation-filters="sRGB">
<feFlood flood-opacity="0" result="BackgroundImageFix"/>
<feColorMatrix in="SourceAlpha" type="matrix" values="0 0 0 0 0 0 0 0 0 0 0 0 0 0 0 0 0 0 127 0" result="hardAlpha"/>
<feOffset/>
<feGaussianBlur stdDeviation="0.5"/>
<feComposite in2="hardAlpha" operator="out"/>
<feColorMatrix type="matrix" values="0 0 0 0 0 0 0 0 0 0 0 0 0 0 0 0 0 0 0.4 0"/>
<feBlend mode="normal" in2="BackgroundImageFix" result="effect1_dropShadow_16654_3156"/>
<feBlend mode="normal" in="SourceGraphic" in2="effect1_dropShadow_16654_3156" result="shape"/>
</filter>
<clipPath id="clip0_16654_3156">
<rect width="12" height="12" fill="white"/>
</clipPath>
</defs>
</svg>
