<svg width="23" height="17" viewBox="0 0 23 17" fill="none" xmlns="http://www.w3.org/2000/svg">
    <path d="M19.375 6.28125C20.3828 6.63281 21.1914 7.25391 21.8008 8.14453C22.4336 9.01172 22.75 9.98438 22.75 11.0625C22.75 12.4688 22.2578 13.6641 21.2734 14.6484C20.2891 15.6328 19.0938 16.125 17.6875 16.125H5.875C4.32812 16.125 3.00391 15.5742 1.90234 14.4727C0.800781 13.3711 0.25 12.0469 0.25 10.5C0.25 9.35156 0.566406 8.30859 1.19922 7.37109C1.85547 6.41016 2.71094 5.71875 3.76562 5.29688C4.04688 3.86719 4.75 2.69531 5.875 1.78125C7.02344 0.84375 8.33594 0.375 9.8125 0.375C10.7734 0.375 11.6758 0.585938 12.5195 1.00781C13.3633 1.42969 14.0781 1.99219 14.6641 2.69531C14.9219 2.64844 15.1797 2.625 15.4375 2.625C16.4688 2.625 17.3594 2.97656 18.1094 3.67969C18.8828 4.38281 19.3047 5.25 19.375 6.28125ZM17.6875 14.4375C18.625 14.4375 19.4219 14.1094 20.0781 13.4531C20.7344 12.7969 21.0625 12 21.0625 11.0625C21.0625 10.125 20.7344 9.32812 20.0781 8.67188C19.4219 8.01562 18.625 7.6875 17.6875 7.6875C17.5703 7.6875 17.4648 7.6875 17.3711 7.6875C17.582 7.33594 17.6875 6.96094 17.6875 6.5625C17.6875 5.95313 17.4648 5.42578 17.0195 4.98047C16.5742 4.53516 16.0469 4.3125 15.4375 4.3125C14.875 4.3125 14.3828 4.48828 13.9609 4.83984C13.6328 4.01953 13.0938 3.35156 12.3438 2.83594C11.5938 2.32031 10.75 2.0625 9.8125 2.0625C8.57031 2.0625 7.50391 2.50781 6.61328 3.39844C5.74609 4.26563 5.3125 5.32031 5.3125 6.5625V6.59766C4.35156 6.73828 3.54297 7.18359 2.88672 7.93359C2.25391 8.66016 1.9375 9.51562 1.9375 10.5C1.9375 11.5781 2.32422 12.5039 3.09766 13.2773C3.87109 14.0508 4.79688 14.4375 5.875 14.4375H17.6875ZM13.75 8.25L14.3125 8.8125C14.5234 9.02344 14.5234 9.23438 14.3125 9.44531L10.6562 13.1016C10.4688 13.2891 10.2812 13.2891 10.0938 13.1016L6.4375 9.44531C6.22656 9.23438 6.22656 9.02344 6.4375 8.8125L7 8.25C7.21094 8.03906 7.42188 8.03906 7.63281 8.25L9.53125 10.2188V5.29688C9.53125 5.01562 9.67188 4.875 9.95312 4.875H10.7969C11.0781 4.875 11.2188 5.01562 11.2188 5.29688V10.2188L13.1172 8.25C13.3281 8.03906 13.5391 8.03906 13.75 8.25Z" fill="currentcolor"/>
</svg>
