<svg width="18" height="14" viewBox="0 0 18 14" fill="none" xmlns="http://www.w3.org/2000/svg">
    <path d="M16.3125 0.5C16.7812 0.5 17.1797 0.664063 17.5078 0.992188C17.8359 1.32031 18 1.71875 18 2.1875V12.3125C18 12.7812 17.8359 13.1797 17.5078 13.5078C17.1797 13.8359 16.7812 14 16.3125 14H1.6875C1.21875 14 0.820312 13.8359 0.492188 13.5078C0.164063 13.1797 0 12.7812 0 12.3125V2.1875C0 1.71875 0.164063 1.32031 0.492188 0.992188C0.820312 0.664063 1.21875 0.5 1.6875 0.5H16.3125ZM16.3125 2.1875H1.6875V3.62891C2.50781 4.28516 4.08984 5.52734 6.43359 7.35547C6.43359 7.37891 6.59766 7.53125 6.92578 7.8125C7.25391 8.07031 7.5 8.25781 7.66406 8.375C7.82812 8.46875 8.03906 8.58594 8.29688 8.72656C8.57812 8.86719 8.8125 8.9375 9 8.9375C9.1875 8.9375 9.41016 8.86719 9.66797 8.72656C9.94922 8.58594 10.1719 8.46875 10.3359 8.375C10.5 8.25781 10.7461 8.07031 11.0742 7.8125C11.4023 7.53125 11.5664 7.37891 11.5664 7.35547C13.9102 5.52734 15.4922 4.28516 16.3125 3.62891V2.1875ZM1.6875 12.3125H16.3125V5.77344C15.4922 6.42969 14.2617 7.40234 12.6211 8.69141C12.5742 8.71484 12.3984 8.85547 12.0938 9.11328C11.8125 9.37109 11.5898 9.55859 11.4258 9.67578C11.2617 9.79297 11.0273 9.94531 10.7227 10.1328C10.418 10.2969 10.125 10.4258 9.84375 10.5195C9.5625 10.5898 9.28125 10.625 9 10.625C8.71875 10.625 8.42578 10.5898 8.12109 10.5195C7.83984 10.4258 7.54688 10.2852 7.24219 10.0977C6.96094 9.91016 6.73828 9.75781 6.57422 9.64062C6.41016 9.52344 6.17578 9.34766 5.87109 9.11328C5.58984 8.85547 5.42578 8.71484 5.37891 8.69141C3.73828 7.40234 2.50781 6.42969 1.6875 5.77344V12.3125Z" fill="currentcolor"/>
</svg>
