<svg width="25" height="20" viewBox="0 0 25 20" fill="none" xmlns="http://www.w3.org/2000/svg">
    <path d="M3.03125 4.46094C3.03125 4.15625 2.91276 3.88542 2.67578 3.64844L0.390625 0.90625V0.5H7.5L13.0352 12.5859L17.8594 0.5H24.6641V0.90625L22.6836 2.78516C22.5143 2.92057 22.4466 3.10677 22.4805 3.34375V17.1562C22.4466 17.3932 22.5143 17.5794 22.6836 17.7148L24.6133 19.5938V20H14.9648V19.5938L16.9453 17.6641C17.0807 17.5286 17.1484 17.3424 17.1484 17.1055V5.93359L11.6641 19.9492H10.9023L4.45312 5.93359V15.3281C4.41927 15.7344 4.53776 16.0898 4.80859 16.3945L7.39844 19.543V19.9492H0.0859375V19.543L2.67578 16.3945C2.98047 16.0898 3.09896 15.7344 3.03125 15.3281V4.46094Z" fill="currentcolor"/>
</svg>
