<svg width="27" height="22" viewBox="0 0 27 22" fill="none" xmlns="http://www.w3.org/2000/svg">
    <path d="M23.6836 5.96875C23.7174 6.10417 23.7344 6.32422 23.7344 6.62891C23.7344 8.42318 23.3958 10.2174 22.7188 12.0117C22.0417 13.7721 21.0768 15.3971 19.8242 16.8867C18.6055 18.3424 17.0143 19.5273 15.0508 20.4414C13.0872 21.3555 10.9206 21.8125 8.55078 21.8125C5.57161 21.8125 2.84635 21.0169 0.375 19.4258C0.747396 19.4596 1.17057 19.4766 1.64453 19.4766C4.11589 19.4766 6.33333 18.7148 8.29688 17.1914C7.11198 17.1914 6.0625 16.8529 5.14844 16.1758C4.26823 15.4648 3.65885 14.5846 3.32031 13.5352C3.65885 13.569 3.98047 13.5859 4.28516 13.5859C4.75911 13.5859 5.23307 13.5352 5.70703 13.4336C4.89453 13.2643 4.16667 12.9258 3.52344 12.418C2.88021 11.9102 2.3724 11.3008 2 10.5898C1.6276 9.84505 1.44141 9.04948 1.44141 8.20312V8.10156C2.1862 8.54167 2.98177 8.77865 3.82812 8.8125C2.23698 7.72917 1.44141 6.23958 1.44141 4.34375C1.44141 3.39583 1.69531 2.4987 2.20312 1.65234C3.52344 3.3112 5.13151 4.63151 7.02734 5.61328C8.95703 6.59505 11.0052 7.13672 13.1719 7.23828C13.1042 6.83203 13.0703 6.42578 13.0703 6.01953C13.0703 4.5638 13.5781 3.3112 14.5938 2.26172C15.6432 1.21224 16.8958 0.6875 18.3516 0.6875C19.9089 0.6875 21.2122 1.24609 22.2617 2.36328C23.4805 2.1263 24.6146 1.70312 25.6641 1.09375C25.2578 2.34635 24.4792 3.32812 23.3281 4.03906C24.3438 3.90365 25.3594 3.61589 26.375 3.17578C25.6302 4.25911 24.7331 5.1901 23.6836 5.96875Z" fill="currentcolor"/>
</svg>
