<svg width="23" height="24" viewBox="0 0 23 24" fill="none" xmlns="http://www.w3.org/2000/svg">
    <path d="M7.26172 8.13672C8.41276 6.98568 9.80078 6.41016 11.4258 6.41016C13.0508 6.41016 14.4219 6.98568 15.5391 8.13672C16.6901 9.25391 17.2656 10.625 17.2656 12.25C17.2656 13.875 16.6901 15.263 15.5391 16.4141C14.4219 17.5312 13.0508 18.0898 11.4258 18.0898C9.80078 18.0898 8.41276 17.5312 7.26172 16.4141C6.14453 15.263 5.58594 13.875 5.58594 12.25C5.58594 10.625 6.14453 9.25391 7.26172 8.13672ZM8.73438 14.9414C9.47917 15.6862 10.3763 16.0586 11.4258 16.0586C12.4753 16.0586 13.3724 15.6862 14.1172 14.9414C14.862 14.1966 15.2344 13.2995 15.2344 12.25C15.2344 11.2005 14.862 10.3034 14.1172 9.55859C13.3724 8.8138 12.4753 8.44141 11.4258 8.44141C10.3763 8.44141 9.47917 8.8138 8.73438 9.55859C7.98958 10.3034 7.61719 11.2005 7.61719 12.25C7.61719 13.2995 7.98958 14.1966 8.73438 14.9414ZM18.4336 5.24219C18.7044 5.47917 18.8398 5.78385 18.8398 6.15625C18.8398 6.52865 18.7044 6.85026 18.4336 7.12109C18.1966 7.39193 17.8919 7.52734 17.5195 7.52734C17.1471 7.52734 16.8255 7.39193 16.5547 7.12109C16.2839 6.85026 16.1484 6.52865 16.1484 6.15625C16.1484 5.78385 16.2839 5.47917 16.5547 5.24219C16.8255 4.97135 17.1471 4.83594 17.5195 4.83594C17.8919 4.83594 18.1966 4.97135 18.4336 5.24219ZM22.75 7.57812C22.7839 8.49219 22.8008 10.0495 22.8008 12.25C22.8008 14.4505 22.7839 16.0078 22.75 16.9219C22.6484 18.987 22.0221 20.5951 20.8711 21.7461C19.7539 22.8633 18.1628 23.4557 16.0977 23.5234C15.1836 23.5911 13.6263 23.625 11.4258 23.625C9.22526 23.625 7.66797 23.5911 6.75391 23.5234C4.6888 23.4219 3.09766 22.8125 1.98047 21.6953C1.54036 21.2891 1.1849 20.8151 0.914062 20.2734C0.643229 19.7318 0.440104 19.207 0.304688 18.6992C0.203125 18.1914 0.152344 17.599 0.152344 16.9219C0.0846354 16.0078 0.0507812 14.4505 0.0507812 12.25C0.0507812 10.0495 0.0846354 8.47526 0.152344 7.52734C0.253906 5.49609 0.863281 3.92188 1.98047 2.80469C3.09766 1.65365 4.6888 1.02734 6.75391 0.925781C7.66797 0.891927 9.22526 0.875 11.4258 0.875C13.6263 0.875 15.1836 0.891927 16.0977 0.925781C18.1628 1.02734 19.7539 1.65365 20.8711 2.80469C22.0221 3.92188 22.6484 5.51302 22.75 7.57812ZM20.3125 18.9531C20.4141 18.6823 20.4987 18.3438 20.5664 17.9375C20.6341 17.4974 20.6849 16.9896 20.7188 16.4141C20.7526 15.8047 20.7695 15.3138 20.7695 14.9414C20.7695 14.569 20.7695 14.0443 20.7695 13.3672C20.7695 12.6901 20.7695 12.3177 20.7695 12.25C20.7695 12.1484 20.7695 11.776 20.7695 11.1328C20.7695 10.4557 20.7695 9.93099 20.7695 9.55859C20.7695 9.1862 20.7526 8.71224 20.7188 8.13672C20.6849 7.52734 20.6341 7.01953 20.5664 6.61328C20.4987 6.17318 20.4141 5.81771 20.3125 5.54688C19.9062 4.4974 19.1784 3.76953 18.1289 3.36328C17.8581 3.26172 17.5026 3.17708 17.0625 3.10938C16.6562 3.04167 16.1484 2.99089 15.5391 2.95703C14.9635 2.92318 14.4896 2.90625 14.1172 2.90625C13.7786 2.90625 13.2539 2.90625 12.543 2.90625C11.8659 2.90625 11.4935 2.90625 11.4258 2.90625C11.3581 2.90625 10.9857 2.90625 10.3086 2.90625C9.63151 2.90625 9.10677 2.90625 8.73438 2.90625C8.36198 2.90625 7.87109 2.92318 7.26172 2.95703C6.6862 2.99089 6.17839 3.04167 5.73828 3.10938C5.33203 3.17708 4.99349 3.26172 4.72266 3.36328C3.67318 3.76953 2.94531 4.4974 2.53906 5.54688C2.4375 5.81771 2.35286 6.17318 2.28516 6.61328C2.21745 7.01953 2.16667 7.52734 2.13281 8.13672C2.09896 8.71224 2.08203 9.1862 2.08203 9.55859C2.08203 9.89714 2.08203 10.4219 2.08203 11.1328C2.08203 11.8099 2.08203 12.1823 2.08203 12.25C2.08203 12.3854 2.08203 12.707 2.08203 13.2148C2.08203 13.6888 2.08203 14.0951 2.08203 14.4336C2.08203 14.7383 2.08203 15.1445 2.08203 15.6523C2.11589 16.1602 2.14974 16.6003 2.18359 16.9727C2.21745 17.3112 2.26823 17.6667 2.33594 18.0391C2.40365 18.4115 2.47135 18.7161 2.53906 18.9531C2.97917 20.0026 3.70703 20.7305 4.72266 21.1367C4.99349 21.2383 5.33203 21.3229 5.73828 21.3906C6.17839 21.4583 6.6862 21.5091 7.26172 21.543C7.87109 21.5768 8.34505 21.5938 8.68359 21.5938C9.05599 21.5938 9.58073 21.5938 10.2578 21.5938C10.9688 21.5938 11.3581 21.5938 11.4258 21.5938C11.5273 21.5938 11.8997 21.5938 12.543 21.5938C13.2201 21.5938 13.7448 21.5938 14.1172 21.5938C14.4896 21.5938 14.9635 21.5768 15.5391 21.543C16.1484 21.5091 16.6562 21.4583 17.0625 21.3906C17.5026 21.3229 17.8581 21.2383 18.1289 21.1367C19.1784 20.6966 19.9062 19.9688 20.3125 18.9531Z" fill="currentcolor"/>
</svg>
