<svg width="23" height="21" viewBox="0 0 23 21" fill="none" xmlns="http://www.w3.org/2000/svg">
    <path d="M22.75 2.27734L19.2969 18.4258C19.026 19.5768 18.3997 19.8815 17.418 19.3398L12.1875 15.4805L9.64844 17.918C9.3099 18.2565 8.95443 18.4258 8.58203 18.4258L8.98828 13.0938L18.6875 4.35938C18.9245 4.1224 18.9245 3.98698 18.6875 3.95312C18.4844 3.88542 18.2643 3.9362 18.0273 4.10547L6.04297 11.6719L0.863281 10.0469C0.28776 9.8776 0.0169271 9.6237 0.0507812 9.28516C0.0846354 8.94661 0.440104 8.65885 1.11719 8.42188L21.2773 0.601562C21.7852 0.432292 22.1914 0.5 22.4961 0.804688C22.8008 1.07552 22.8854 1.56641 22.75 2.27734Z" fill="currentcolor"/>
</svg>
